<svg fill="none" height="226" viewBox="0 0 692 226" width="692" xmlns="http://www.w3.org/2000/svg"><g fill="#ffffff"><path d="m.208435 211.104v-199.88l110.985565-9.73101 26.3 13.15001v42.869l-65.4866 5.523v16.306l29.7186-2.63 26.3 13.15v42.869l-56.0186 4.734v82.582l-45.499 4.208zm98.887965-93.891v-37.609l-56.019 4.734v-36.82l65.4866-5.523v-37.60901l-105.72557 9.20501v194.883l40.23897-3.682v-82.845zm160.2476 89.157-18.673-33.664v47.866l-45.236 3.945-26.3-13.15v-199.88l66.013-5.78602c1.402-.17533 2.717-.26299 3.945-.26299h3.945c10.169 0 19.988 1.578 29.456 4.73401 9.468 3.156 17.971 7.8023 25.511 13.939 7.539 6.1367 13.5 13.5883 17.884 22.355 4.383 8.5913 6.575 18.41 6.575 29.456 0 27.878-10.17 47.954-30.508 60.227l44.447 79.163-50.759 4.208zm2.63-84.423c10.87-5.961 18.848-13.851 23.933-23.67 5.084-9.8187 7.627-21.6537 7.627-35.505 0-16.306-4.559-29.456-13.676-39.45-8.942-10.1693-21.566-15.25402-37.872-15.25402-1.052 0-2.104 0-3.156 0s-2.192.08768-3.419.26302l-63.646 5.523v194.883l39.976-3.419v-69.432l11.309-1.052 37.609 68.906 44.973-3.945zm-50.233-73.64 17.358-1.578h2.893c5.786 0 10.607 1.7533 14.465 5.26 4.032 3.3313 6.049 9.205 6.049 17.621 0 8.7667-2.104 15.6047-6.312 20.514-4.208 4.734-9.907 7.4517-17.095 8.153l-17.358 1.578zm28.93 43.395c6.136-4.3833 9.205-11.7473 9.205-22.092 0-1.2273-.088-2.367-.263-3.419 0-1.052-.088-2.104-.263-3.156l-8.679.789zm211.54 115.194-21.303-35.505v49.97l-44.973 3.945-26.3-13.15v-199.88l44.973-3.945 26.3 13.15v14.202l17.621-28.667 50.759-4.47101 26.3 13.15001-59.701 93.628 64.961 106.252-52.337 4.471zm42.08-201.19502-44.184 3.94502-48.129 78.637v-77.059l-39.713 3.419v194.62l39.713-3.156v-56.019l9.994-15.517 41.554 69.695 46.288-4.208-63.383-103.622zm82.75 202.51002v-140.442l-16.569 1.315-26.3-13.15v-44.184l130.974-11.572008 26.3 13.150008v44.184l-42.869 3.682v155.696l-45.236 4.208zm85.475-166.216v-38.92401l-125.714 11.04601v38.924l42.869-3.682v155.959l39.976-3.419v-156.222z"/><path d="m.208435 211.104h-1v.618l.552787.276zm0-199.88-.087343-.9962-.912657.08v.9162zm110.985565-9.73101.448-.894426-.253-.126447-.282.024696zm26.3 13.15001h1v-.618l-.552-.2764zm0 42.869.084.9965.916-.0773v-.9192zm-65.4866 5.523-.084-.9965-.916.0773v.9192zm0 16.306h-1v1.0924l1.0882-.0963zm29.7186-2.63.448-.8944-.254-.1267-.282.025zm26.3 13.15h1v-.618l-.552-.2764zm0 42.869.085.996.915-.077v-.919zm-56.0186 4.734-.0842-.996-.9158.077v.919zm0 82.582.0921.996.9079-.084v-.912zm-45.499 4.208-.4472.894.2552.128.2841-.026zm72.588-107.041.0842.996.9154-.077v-.919zm0-37.609h.9996v-1.0881l-1.0838.0916zm-56.019 4.734h-1v1.0881l1.0842-.0917zm0-36.82-.084-.9965-.916.0773v.9192zm65.4866-5.523.084.9964.916-.0772v-.9192zm0-37.60901h1v-1.09085l-1.086.09461zm-105.72557 9.20501-.08673-.9962-.91327.0795v.9167zm0 194.883h-1v1.096l1.09113-.1zm40.23897-3.682.0912.996.9088-.083v-.913zm0-82.845-.0842-.996-.9158.077v.919zm-41.86896 89.157v-199.88h-2.000005v199.88zm-.912662-198.8838 110.986222-9.73103-.175-1.992357-110.985908 9.730987zm110.451222-9.83278 26.3 13.14998.895-1.7888-26.3-13.150036zm25.747 12.25558v42.869h2v-42.869zm.916 41.8725-65.4866 5.523.1681 1.993 65.4865-5.523zm-66.4026 6.5195v16.306h2v-16.306zm1.0882 17.3021 29.7194-2.63-.177-1.9922-29.7187 2.63zm29.1834-2.7317 26.3 13.15.895-1.7888-26.3-13.15zm25.747 12.2556v42.869h2v-42.869zm.916 41.873-56.0188 4.734.1684 1.992 56.0194-4.734zm-56.9346 5.73v82.582h2v-82.582zm.9079 81.586-45.499 4.208.1842 1.992 45.499-4.208zm-44.9597 4.31-26.299951-13.15-.894427 1.788 26.299978 13.15zm73.1404-106.147v-37.609h-1.9996v37.609zm-1.0838-38.6055-56.019 4.734.1684 1.9929 56.019-4.734zm-54.9348 5.7305v-36.82h-2v36.82zm-.9159-35.8235 65.4865-5.5231-.168-1.9929-65.4866 5.523zm66.4025-6.5195v-37.60901h-2v37.60901zm-1.086-38.60525-105.7263 9.20505.17347 1.9924 105.72583-9.20498zm-106.63957 10.20125v194.883h2v-194.883zm1.09113 195.879 40.23904-3.682-.1823-1.992-40.23899 3.682zm41.14784-4.678v-82.845h-2v82.845zm-.9158-81.849 56.019-4.734-.1684-1.992-56.019 4.734zm216.1824 83.427-.875.485.15.271.277.138zm-18.673-33.664.874-.485-1.874-3.379v3.864zm0 47.866.086.996.914-.079v-.917zm-45.236 3.945-.448.894.253.127.281-.025zm-26.3-13.15h-1v.618l.552.276zm0-199.88-.088-.9962-.912.08v.9162zm66.013-5.78602.087.99618.018-.00161.019-.00229zm37.346 4.47102-.317.9487zm25.511 13.939-.632.7756zm17.884 22.355-.895.4472.004.0073zm-23.933 89.683-.517-.856-.83.501.475.845zm44.447 79.163.082.997 1.552-.129-.762-1.358zm-50.759 4.208-.448.894.251.126.279-.023zm-23.67-97.573-.481-.877-.885.486.493.88zm23.933-23.67-.888-.4599zm-6.049-74.955-.751.6603.006.0069.006.0068zm-44.447-14.991.086.99625.028-.00239.027-.00391zm-63.646 5.523-.087-.9963-.913.0793v.917zm0 194.883h-1v1.089l1.085-.093zm39.976-3.419.085.996.915-.078v-.918zm0-69.432-.093-.996-.907.085v.911zm11.309-1.052.877-.479-.315-.578-.655.061zm37.609 68.906-.878.479.313.574.652-.057zm44.973-3.945.087.996 1.542-.135-.757-1.35zm-93.891-151.488-.091-.9959-.909.0827v.9132zm17.358-1.578v-1h-.046l-.045.0041zm17.358 5.26-.673.7399.017.016.019.0151zm-.263 38.135.747.6644.006-.0068.006-.0068zm-17.095 8.153.09.9959.007-.0006zm-17.358 1.578h-1v1.095l1.09-.099zm28.93-8.153h-1v1.9432l1.581-1.1295zm8.942-25.511h-1v.0828l.013.0816zm-.263-3.156.986-.1644-.153-.9155-.924.084zm-8.679.789-.091-.9959-.909.0827v.9132zm19.547 142.061-18.673-33.664-1.749.97 18.673 33.664zm-20.547-33.179v47.866h2v-47.866zm.913 46.87-45.236 3.945.173 1.992 45.236-3.945zm-44.702 4.047-26.3-13.15-.895 1.788 26.3 13.15zm-25.747-12.256v-199.88h-2v199.88zm-.913-198.8838 66.013-5.78604-.175-1.99236-66.013 5.786zm66.05-5.78994c1.367-.17094 2.64-.25527 3.821-.25527v-2c-1.275 0-2.632.09099-4.069.27072zm3.821-.25527h.008.008.008.008.009.008.008.008.008.009.008.008.008.008.009.008.008.008.008.009.008.008.008.008.008.009.008.008.008.008.008.009.008.008.008.008.008.008.009.008.008.008.008.008.008.009.008.008.008.008.008.008.008.008.009.008.008.008.008.008.008.008.008.008.009.008.008.008.008.008.008.008.008.008.008.008.008.009.008.008.008.008.008.008.008.008.008.008.008.008.008.008.008.008.008.008.008.008.008.008.008.008.008.008.008.008.008.008.008.008.008.008.008.008.008.008.008.008.008.008.008.008.008.008.008.008.008.008.008.008.008.008.008.008.008.008.008.008.008.008.007.008.008.008.008.008.008.008.008.008.008.008.008.007.008.008.008.008.008.008.008.008.008.007.008.008.008.008.008.008.008.008.007.008.008.008.008.008.008.007.008.008.008.008.008.008.007.008.008.008.008.008.007.008.008.008.008.008.007.008.008.008.008.007.008.008.008.008.007.008.008.008.008.007.008.008.008.008.007.008.008.008.007.008.008.008.008.007.008.008.008.007.008.008.008.007.008.008.008.007.008.008.007.008.008.008.007.008.008.008.007.008.008.007.008.008.008.007.008.008.007.008.008.007.008.008.007.008.008.007.008.008.008.007.008.008.007.008.008.007.008.007.008.008.007.008.008.007.008.008.007.008.008.007.008.007.008.008.007.008.008.007.008.007.008.008.007.008.007.008.008.007.008.007.008.008.007.008.007.008.007.008.008.007.008.007.008.007.008.008.007.008.007.008.007.008.007.008.007.008.008.007.008.007.008.007.008.007.008.007.008.007.008.007.008.007.008.007.008.007.008.007.008.007.008.007.008.007.008.007.008.007.008.007.008.007.007.008.007.008.007.008.007.008.007.008.007.007.008.007.008.007.008.007.007.008.007.008.007.008.007.007.008.007.008.007.007.008.007.008.007.007.008.007.008.007.007.008.007.007.008.007.008.007.007.008.007.007.008.007.007.008.007.008.007.007.008.007.007.008.007.007.008.007.007.008.007.007.008.007.007.007.008.007.007.008.007.007.008.007.007.007.008.007.007.008.007.007.007.008.007.007.008.007.007.007.008.007.007.007.008.007.007.007.008.007.007.007.008.007.007.007.008.007.007.007.007.008.007.007.007.008.007.007.007.007.008.007.007.007.007.008v-2c-.003 0-.005 0-.008 0-.002 0-.004 0-.007 0-.002 0-.005 0-.007 0s-.005 0-.007 0c-.003 0-.005 0-.007 0-.003 0-.005 0-.008 0-.002 0-.004 0-.007 0-.002 0-.005 0-.007 0s-.005 0-.007 0c-.003 0-.005 0-.007 0-.003 0-.005 0-.008 0-.002 0-.004 0-.007 0-.002 0-.005 0-.007 0s-.005 0-.007 0c-.003 0-.005 0-.008 0-.002 0-.004 0-.007 0-.002 0-.005 0-.007 0s-.005 0-.007 0c-.003 0-.005 0-.007 0-.003 0-.005 0-.008 0-.002 0-.004 0-.007 0-.002 0-.005 0-.007 0-.003 0-.005 0-.007 0-.003 0-.005 0-.008 0-.002 0-.004 0-.007 0-.002 0-.005 0-.007 0s-.005 0-.007 0c-.003 0-.005 0-.008 0-.002 0-.004 0-.007 0-.002 0-.005 0-.007 0s-.005 0-.007 0c-.003 0-.005 0-.008 0-.002 0-.004 0-.007 0-.002 0-.005 0-.007 0-.003 0-.005 0-.007 0-.003 0-.005 0-.008 0-.002 0-.004 0-.007 0-.002 0-.005 0-.007 0-.003 0-.005 0-.007 0-.003 0-.005 0-.008 0-.002 0-.005 0-.007 0s-.005 0-.007 0c-.003 0-.005 0-.008 0-.002 0-.004 0-.007 0-.002 0-.005 0-.007 0s-.005 0-.007 0c-.003 0-.005 0-.008 0-.002 0-.004 0-.007 0-.002 0-.005 0-.007 0-.003 0-.005 0-.008 0-.002 0-.004 0-.007 0-.002 0-.005 0-.007 0-.003 0-.005 0-.007 0-.003 0-.005 0-.008 0-.002 0-.005 0-.007 0s-.005 0-.007 0c-.003 0-.005 0-.008 0-.002 0-.004 0-.007 0-.002 0-.005 0-.007 0-.003 0-.005 0-.008 0-.002 0-.004 0-.007 0-.002 0-.005 0-.007 0-.003 0-.005 0-.007 0-.003 0-.005 0-.008 0-.002 0-.005 0-.007 0-.003 0-.005 0-.007 0-.003 0-.005 0-.008 0-.002 0-.005 0-.007 0-.003 0-.005 0-.007 0-.003 0-.005 0-.008 0-.002 0-.005 0-.007 0-.003 0-.005 0-.007 0-.003 0-.005 0-.008 0-.002 0-.005 0-.007 0-.003 0-.005 0-.007 0-.003 0-.005 0-.008 0-.002 0-.005 0-.007 0-.003 0-.005 0-.007 0-.003 0-.005 0-.008 0-.002 0-.005 0-.007 0-.003 0-.005 0-.008 0-.002 0-.004 0-.007 0-.002 0-.005 0-.007 0-.003 0-.005 0-.008 0-.002 0-.004 0-.007 0-.002 0-.005 0-.007 0-.003 0-.005 0-.008 0-.002 0-.005 0-.007 0s-.005 0-.007 0c-.003 0-.005 0-.008 0-.002 0-.005 0-.007 0-.003 0-.005 0-.008 0-.002 0-.004 0-.007 0-.002 0-.005 0-.007 0-.003 0-.005 0-.008 0-.002 0-.005 0-.007 0-.003 0-.005 0-.007 0-.003 0-.005 0-.008 0-.002 0-.005 0-.007 0-.003 0-.005 0-.008 0-.002 0-.005 0-.007 0s-.005 0-.007 0c-.003 0-.005 0-.008 0-.002 0-.005 0-.007 0-.003 0-.005 0-.008 0-.002 0-.005 0-.007 0s-.005 0-.007 0c-.003 0-.005 0-.008 0-.002 0-.005 0-.007 0-.003 0-.005 0-.008 0-.002 0-.005 0-.007 0-.003 0-.005 0-.007 0-.003 0-.005 0-.008 0-.002 0-.005 0-.007 0-.003 0-.005 0-.008 0-.002 0-.005 0-.007 0-.003 0-.005 0-.008 0-.002 0-.005 0-.007 0s-.005 0-.007 0c-.003 0-.005 0-.008 0-.002 0-.005 0-.007 0-.003 0-.005 0-.008 0-.002 0-.005 0-.007 0-.003 0-.005 0-.008 0-.002 0-.005 0-.007 0-.003 0-.005 0-.007 0-.003 0-.005 0-.008 0-.002 0-.005 0-.007 0-.003 0-.005 0-.008 0-.002 0-.005 0-.007 0-.003 0-.005 0-.008 0-.002 0-.005 0-.007 0-.003 0-.005 0-.008 0-.002 0-.005 0-.007 0-.003 0-.005 0-.008 0-.002 0-.005 0-.007 0-.003 0-.005 0-.007 0-.003 0-.005 0-.008 0-.002 0-.005 0-.007 0-.003 0-.005 0-.008 0-.002 0-.005 0-.007 0-.003 0-.005 0-.008 0-.002 0-.005 0-.007 0-.003 0-.005 0-.008 0-.002 0-.005 0-.007 0-.003 0-.005 0-.008 0-.002 0-.005 0-.007 0-.003 0-.005 0-.008 0-.002 0-.005 0-.007 0-.003 0-.005 0-.008 0-.002 0-.005 0-.007 0-.003 0-.005 0-.008 0-.002 0-.005 0-.007 0-.003 0-.005 0-.008 0-.002 0-.005 0-.007 0-.003 0-.005 0-.008 0-.002 0-.005 0-.007 0-.003 0-.005 0-.008 0-.002 0-.005 0-.007 0-.003 0-.005 0-.008 0-.002 0-.005 0-.007 0-.003 0-.005 0-.008 0-.002 0-.005 0-.007 0-.003 0-.005 0-.008 0-.002 0-.005 0-.007 0-.003 0-.005 0-.008 0-.002 0-.005 0-.007 0-.003 0-.005 0-.008 0-.002 0-.005 0-.007 0-.003 0-.005 0-.008 0-.002 0-.005 0-.007 0-.003 0-.006 0-.008 0-.003 0-.005 0-.008 0-.002 0-.005 0-.007 0-.003 0-.005 0-.008 0-.002 0-.005 0-.007 0-.003 0-.005 0-.008 0-.002 0-.005 0-.007 0-.003 0-.005 0-.008 0-.002 0-.005 0-.007 0-.003 0-.005 0-.008 0-.002 0-.005 0-.007 0-.003 0-.006 0-.008 0-.003 0-.005 0-.008 0-.002 0-.005 0-.007 0-.003 0-.005 0-.008 0-.002 0-.005 0-.007 0-.003 0-.005 0-.008 0-.002 0-.005 0-.007 0-.003 0-.005 0-.008 0s-.005 0-.008 0c-.002 0-.005 0-.007 0-.003 0-.005 0-.008 0-.002 0-.005 0-.007 0-.003 0-.005 0-.008 0-.002 0-.005 0-.007 0-.003 0-.006 0-.008 0-.003 0-.005 0-.008 0-.002 0-.005 0-.007 0-.003 0-.005 0-.008 0-.002 0-.005 0-.007 0-.003 0-.005 0-.008 0s-.005 0-.008 0c-.002 0-.005 0-.007 0-.003 0-.005 0-.008 0-.002 0-.005 0-.007 0-.003 0-.006 0-.008 0-.003 0-.005 0-.008 0-.002 0-.005 0-.007 0-.003 0-.005 0-.008 0-.002 0-.005 0-.007 0-.003 0-.006 0-.008 0-.003 0-.005 0-.008 0-.002 0-.005 0-.007 0-.003 0-.005 0-.008 0-.002 0-.005 0-.008 0-.002 0-.005 0-.007 0-.003 0-.005 0-.008 0-.002 0-.005 0-.007 0-.003 0-.006 0-.008 0-.003 0-.005 0-.008 0-.002 0-.005 0-.007 0-.003 0-.005 0-.008 0s-.005 0-.008 0c-.002 0-.005 0-.007 0-.003 0-.005 0-.008 0-.002 0-.005 0-.008 0-.002 0-.005 0-.007 0-.003 0-.005 0-.008 0-.002 0-.005 0-.008 0-.002 0-.005 0-.007 0-.003 0-.005 0-.008 0-.002 0-.005 0-.007 0-.003 0-.006 0-.008 0-.003 0-.005 0-.008 0-.002 0-.005 0-.007 0-.003 0-.006 0-.008 0-.003 0-.005 0-.008 0-.002 0-.005 0-.007 0-.003 0-.006 0-.008 0-.003 0-.005 0-.008 0-.002 0-.005 0-.008 0-.002 0-.005 0-.007 0-.003 0-.005 0-.008 0-.002 0-.005 0-.008 0-.002 0-.005 0-.007 0-.003 0-.005 0-.008 0-.002 0-.005 0-.008 0-.002 0-.005 0-.007 0-.003 0-.005 0-.008 0s-.005 0-.008 0c-.002 0-.005 0-.007 0-.003 0-.006 0-.008 0-.003 0-.005 0-.008 0-.002 0-.005 0-.007 0-.003 0-.006 0-.008 0-.003 0-.005 0-.008 0-.002 0-.005 0-.008 0-.002 0-.005 0-.007 0-.003 0-.005 0-.008 0s-.005 0-.008 0c-.002 0-.005 0-.007 0-.003 0-.006 0-.008 0-.003 0-.005 0-.008 0-.002 0-.005 0-.008 0-.002 0-.005 0-.007 0-.003 0-.005 0-.008 0s-.005 0-.008 0c-.002 0-.005 0-.008 0-.002 0-.005 0-.007 0-.003 0-.005 0-.008 0s-.005 0-.008 0c-.002 0-.005 0-.007 0-.003 0-.006 0-.008 0-.003 0-.005 0-.008 0s-.005 0-.008 0c-.002 0-.005 0-.007 0-.003 0-.006 0-.008 0-.003 0-.005 0-.008 0s-.005 0-.008 0c-.002 0-.005 0-.007 0-.003 0-.006 0-.008 0-.003 0-.005 0-.008 0s-.005 0-.008 0c-.002 0-.005 0-.007 0-.003 0-.006 0-.008 0-.003 0-.005 0-.008 0s-.005 0-.008 0c-.002 0-.005 0-.008 0-.002 0-.005 0-.007 0-.003 0-.005 0-.008 0s-.005 0-.008 0c-.002 0-.005 0-.008 0-.002 0-.005 0-.007 0-.003 0-.006 0-.008 0-.003 0-.005 0-.008 0s-.005 0-.008 0c-.002 0-.005 0-.008 0-.002 0-.005 0-.007 0-.003 0-.006 0-.008 0-.003 0-.005 0-.008 0s-.005 0-.008 0c-.002 0-.005 0-.008 0-.002 0-.005 0-.007 0-.003 0-.006 0-.008 0-.003 0-.005 0-.008 0s-.005 0-.008 0c-.002 0-.005 0-.008 0-.002 0-.005 0-.007 0-.003 0-.006 0-.008 0-.003 0-.005 0-.008 0s-.005 0-.008 0c-.002 0-.005 0-.008 0-.002 0-.005 0-.007 0-.003 0-.006 0-.008 0-.003 0-.005 0-.008 0s-.005 0-.008 0-.005 0-.008 0c-.002 0-.005 0-.008 0-.002 0-.005 0-.007 0-.003 0-.006 0-.008 0-.003 0-.005 0-.008 0s-.005 0-.008 0-.005 0-.008 0c-.002 0-.005 0-.008 0-.002 0-.005 0-.007 0-.003 0-.006 0-.008 0-.003 0-.006 0-.008 0-.003 0-.005 0-.008 0s-.005 0-.008 0c-.002 0-.005 0-.008 0-.002 0-.005 0-.008 0-.002 0-.005 0-.007 0-.003 0-.006 0-.008 0-.003 0-.006 0-.008 0-.003 0-.005 0-.008 0s-.005 0-.008 0c-.002 0-.005 0-.008 0-.002 0-.005 0-.008 0-.002 0-.005 0-.007 0-.003 0-.006 0-.008 0-.003 0-.006 0-.008 0-.003 0-.005 0-.008 0s-.005 0-.008 0-.005 0-.008 0-.005 0-.008 0c-.002 0-.005 0-.008 0-.002 0-.005 0-.008 0-.002 0-.005 0-.007 0-.003 0-.006 0-.008 0-.003 0-.006 0-.008 0-.003 0-.005 0-.008 0s-.005 0-.008 0-.005 0-.008 0-.005 0-.008 0c-.002 0-.005 0-.008 0-.002 0-.005 0-.008 0-.002 0-.005 0-.008 0-.002 0-.005 0-.007 0-.003 0-.006 0-.008 0-.003 0-.006 0-.008 0-.003 0-.006 0-.008 0-.003 0-.005 0-.008 0s-.005 0-.008 0-.005 0-.008 0-.005 0-.008 0-.005 0-.008 0c-.002 0-.005 0-.008 0-.002 0-.005 0-.008 0-.002 0-.005 0-.008 0-.002 0-.005 0-.008 0-.002 0-.005 0-.007 0-.003 0-.006 0-.008 0-.003 0-.006 0-.008 0-.003 0-.006 0-.008 0-.003 0-.006 0-.008 0-.003 0-.006 0-.008 0-.003 0-.005 0-.008 0s-.005 0-.008 0-.005 0-.008 0-.005 0-.008 0-.005 0-.008 0-.005 0-.008 0-.005 0-.008 0-.005 0-.008 0c-.002 0-.005 0-.008 0-.002 0-.005 0-.008 0-.002 0-.005 0-.008 0-.002 0-.005 0-.008 0-.002 0-.005 0-.008 0-.002 0-.005 0-.008 0-.002 0-.005 0-.008 0-.002 0-.005 0-.008 0-.002 0-.005 0-.008 0-.002 0-.005 0-.008 0-.002 0-.005 0-.008 0-.002 0-.005 0-.008 0-.002 0-.005 0-.008 0-.002 0-.005 0-.008 0-.002 0-.005 0-.008 0-.002 0-.005 0-.008 0-.002 0-.005 0-.008 0-.002 0-.005 0-.008 0-.002 0-.005 0-.008 0-.002 0-.005 0-.008 0-.002 0-.005 0-.008 0-.002 0-.005 0-.008 0-.002 0-.005 0-.008 0-.002 0-.005 0-.008 0-.002 0-.005 0-.008 0-.002 0-.005 0-.008 0-.002 0-.005 0-.008 0-.002 0-.005 0-.008 0-.002 0-.005 0-.008 0-.002 0-.005 0-.008 0-.002 0-.005 0-.008 0-.002 0-.005 0-.008 0-.002 0-.005 0-.008 0-.002 0-.005 0-.008 0-.002 0-.005 0-.008 0-.002 0-.005 0-.008 0s-.005 0-.008 0-.005 0-.008 0-.005 0-.008 0-.005 0-.008 0-.005 0-.008 0-.005 0-.008 0-.005 0-.008 0-.005 0-.008 0-.006 0-.008 0c-.003 0-.006 0-.008 0-.003 0-.006 0-.008 0-.003 0-.006 0-.008 0-.003 0-.006 0-.008 0-.003 0-.006 0-.009 0-.002 0-.005 0-.008 0-.002 0-.005 0-.008 0-.002 0-.005 0-.008 0-.002 0-.005 0-.008 0-.002 0-.005 0-.008 0s-.005 0-.008 0-.005 0-.008 0-.005 0-.008 0-.005 0-.008 0-.006 0-.008 0c-.003 0-.006 0-.008 0-.003 0-.006 0-.008 0-.003 0-.006 0-.009 0-.002 0-.005 0-.008 0-.002 0-.005 0-.008 0-.002 0-.005 0-.008 0s-.005 0-.008 0-.005 0-.008 0-.005 0-.008 0-.006 0-.008 0c-.003 0-.006 0-.008 0-.003 0-.006 0-.008 0-.003 0-.006 0-.009 0-.002 0-.005 0-.008 0-.002 0-.005 0-.008 0-.002 0-.005 0-.008 0s-.005 0-.008 0-.005 0-.008 0-.006 0-.008 0c-.003 0-.006 0-.008 0-.003 0-.006 0-.008 0-.003 0-.006 0-.009 0-.002 0-.005 0-.008 0-.002 0-.005 0-.008 0s-.005 0-.008 0-.005 0-.008 0-.006 0-.008 0c-.003 0-.006 0-.008 0-.003 0-.006 0-.009 0-.002 0-.005 0-.008 0-.002 0-.005 0-.008 0s-.005 0-.008 0-.005 0-.008 0-.006 0-.008 0c-.003 0-.006 0-.008 0-.003 0-.006 0-.009 0-.002 0-.005 0-.008 0-.002 0-.005 0-.008 0s-.005 0-.008 0-.006 0-.008 0c-.003 0-.006 0-.008 0-.003 0-.006 0-.009 0-.002 0-.005 0-.008 0-.002 0-.005 0-.008 0s-.005 0-.008 0-.006 0-.008 0c-.003 0-.006 0-.008 0-.003 0-.006 0-.009 0-.002 0-.005 0-.008 0s-.005 0-.008 0-.005 0-.008 0-.006 0-.008 0c-.003 0-.006 0-.009 0-.002 0-.005 0-.008 0-.002 0-.005 0-.008 0s-.005 0-.008 0-.006 0-.008 0c-.003 0-.006 0-.009 0-.002 0-.005 0-.008 0-.002 0-.005 0-.008 0s-.005 0-.008 0-.006 0-.008 0c-.003 0-.006 0-.009 0-.002 0-.005 0-.008 0s-.005 0-.008 0-.005 0-.008 0-.006 0-.008 0zm3.945 0c10.063 0 19.775 1.56132 29.139 4.68271l.633-1.89739c-9.572-3.19064-19.498-4.78532-29.772-4.78532zm29.139 4.68271c9.357 3.1188 17.753 7.7075 25.196 13.7659l1.263-1.5512c-7.636-6.2149-16.247-10.9189-25.826-14.11209zm25.196 13.7659c7.429 6.0463 13.301 13.3857 17.621 22.0266l1.789-.8944c-4.446-8.8925-10.497-16.4564-18.147-22.6834zm17.625 22.0339c4.302 8.4314 6.466 18.0904 6.466 29.0015h2c0-11.1809-2.22-21.1592-6.685-29.9105zm6.466 29.0015c0 27.599-10.043 47.313-30.025 59.371l1.033 1.712c20.696-12.488 30.992-32.926 30.992-61.083zm-30.38 60.717 44.447 79.163 1.744-.98-44.447-79.163zm45.236 77.676-50.759 4.208.165 1.994 50.759-4.208zm-50.229 4.311-26.3-13.15-.895 1.788 26.3 13.15zm-23.637-95.802c11.023-6.045 19.154-14.071 24.341-24.0872l-1.776-.9197c-4.983 9.6219-12.808 17.3749-23.526 23.2529zm24.341-24.0872c5.174-9.9922 7.739-21.993 7.739-35.9648h-2c0 13.7309-2.521 25.4-7.515 35.0451zm7.739-35.9648c0-16.5014-4.619-29.9094-13.938-40.124l-1.477 1.348c8.916 9.7734 13.415 22.6654 13.415 38.776zm-13.925-40.1103c-9.171-10.4292-22.094-15.59372-38.623-15.59372v2c16.082 0 28.407 5.00482 37.121 14.91432zm-38.623-15.59372c-.002 0-.005 0-.007 0s-.004 0-.006 0-.004 0-.006 0-.004 0-.006 0-.004 0-.006 0-.004 0-.006 0-.005 0-.007 0-.004 0-.006 0-.004 0-.006 0-.004 0-.006 0-.004 0-.006 0-.004 0-.006 0-.005 0-.007 0-.004 0-.006 0-.004 0-.006 0-.004 0-.006 0-.004 0-.006 0-.004 0-.006 0-.004 0-.007 0c-.002 0-.004 0-.006 0s-.004 0-.006 0-.004 0-.006 0-.004 0-.006 0-.004 0-.006 0-.004 0-.007 0c-.002 0-.004 0-.006 0s-.004 0-.006 0-.004 0-.006 0-.004 0-.006 0-.004 0-.006 0-.004 0-.007 0c-.002 0-.004 0-.006 0s-.004 0-.006 0-.004 0-.006 0-.004 0-.006 0-.004 0-.006 0-.004 0-.006 0c-.003 0-.005 0-.007 0s-.004 0-.006 0-.004 0-.006 0-.004 0-.006 0-.004 0-.006 0-.004 0-.006 0c-.003 0-.005 0-.007 0s-.004 0-.006 0-.004 0-.006 0-.004 0-.006 0-.004 0-.006 0-.004 0-.006 0c-.003 0-.005 0-.007 0s-.004 0-.006 0-.004 0-.006 0-.004 0-.006 0-.004 0-.006 0-.004 0-.006 0c-.003 0-.005 0-.007 0s-.004 0-.006 0-.004 0-.006 0-.004 0-.006 0-.004 0-.006 0-.004 0-.006 0-.005 0-.007 0-.004 0-.006 0-.004 0-.006 0-.004 0-.006 0-.004 0-.006 0-.004 0-.006 0-.005 0-.007 0-.004 0-.006 0-.004 0-.006 0-.004 0-.006 0-.004 0-.006 0-.004 0-.006 0-.005 0-.007 0-.004 0-.006 0-.004 0-.006 0-.004 0-.006 0-.004 0-.006 0-.004 0-.006 0-.004 0-.007 0c-.002 0-.004 0-.006 0s-.004 0-.006 0-.004 0-.006 0-.004 0-.006 0-.004 0-.006 0-.004 0-.007 0c-.002 0-.004 0-.006 0s-.004 0-.006 0-.004 0-.006 0-.004 0-.006 0-.004 0-.006 0-.004 0-.007 0c-.002 0-.004 0-.006 0s-.004 0-.006 0-.004 0-.006 0-.004 0-.006 0-.004 0-.006 0-.004 0-.007 0c-.002 0-.004 0-.006 0s-.004 0-.006 0-.004 0-.006 0-.004 0-.006 0-.004 0-.006 0-.004 0-.006 0c-.003 0-.005 0-.007 0s-.004 0-.006 0-.004 0-.006 0-.004 0-.006 0-.004 0-.006 0-.004 0-.006 0c-.003 0-.005 0-.007 0s-.004 0-.006 0-.004 0-.006 0-.004 0-.006 0-.004 0-.006 0-.004 0-.006 0c-.003 0-.005 0-.007 0s-.004 0-.006 0-.004 0-.006 0-.004 0-.006 0-.004 0-.006 0-.004 0-.006 0-.005 0-.007 0-.004 0-.006 0-.004 0-.006 0-.004 0-.006 0-.004 0-.006 0-.004 0-.006 0-.005 0-.007 0-.004 0-.006 0-.004 0-.006 0-.004 0-.006 0-.004 0-.006 0-.004 0-.006 0-.005 0-.007 0-.004 0-.006 0-.004 0-.006 0-.004 0-.006 0-.004 0-.006 0-.004 0-.006 0-.005 0-.007 0-.004 0-.006 0-.004 0-.006 0-.004 0-.006 0-.004 0-.006 0-.004 0-.006 0-.004 0-.007 0c-.002 0-.004 0-.006 0s-.004 0-.006 0-.004 0-.006 0-.004 0-.006 0-.004 0-.006 0-.004 0-.007 0c-.002 0-.004 0-.006 0s-.004 0-.006 0-.004 0-.006 0-.004 0-.006 0-.004 0-.006 0-.004 0-.007 0c-.002 0-.004 0-.006 0s-.004 0-.006 0-.004 0-.006 0-.004 0-.006 0-.004 0-.006 0-.004 0-.006 0c-.003 0-.005 0-.007 0s-.004 0-.006 0-.004 0-.006 0-.004 0-.006 0-.004 0-.006 0-.004 0-.006 0c-.003 0-.005 0-.007 0s-.004 0-.006 0-.004 0-.006 0-.004 0-.006 0-.004 0-.006 0-.004 0-.006 0c-.003 0-.005 0-.007 0s-.004 0-.006 0-.004 0-.006 0-.004 0-.006 0-.004 0-.006 0-.004 0-.006 0c-.003 0-.005 0-.007 0s-.004 0-.006 0-.004 0-.006 0-.004 0-.006 0-.004 0-.006 0-.004 0-.006 0-.005 0-.007 0-.004 0-.006 0-.004 0-.006 0-.004 0-.006 0-.004 0-.006 0-.004 0-.006 0-.005 0-.007 0-.004 0-.006 0-.004 0-.006 0-.004 0-.006 0-.004 0-.006 0-.004 0-.006 0-.005 0-.007 0-.004 0-.006 0-.004 0-.006 0-.004 0-.006 0-.004 0-.006 0-.004 0-.006 0-.004 0-.007 0c-.002 0-.004 0-.006 0s-.004 0-.006 0-.004 0-.006 0-.004 0-.006 0-.004 0-.006 0-.004 0-.007 0c-.002 0-.004 0-.006 0s-.004 0-.006 0-.004 0-.006 0-.004 0-.006 0-.004 0-.006 0-.004 0-.007 0c-.002 0-.004 0-.006 0s-.004 0-.006 0-.004 0-.006 0-.004 0-.006 0-.004 0-.006 0-.004 0-.007 0c-.002 0-.004 0-.006 0s-.004 0-.006 0-.004 0-.006 0-.004 0-.006 0-.004 0-.006 0-.004 0-.006 0c-.003 0-.005 0-.007 0s-.004 0-.006 0-.004 0-.006 0-.004 0-.006 0-.004 0-.006 0-.004 0-.006 0c-.003 0-.005 0-.007 0s-.004 0-.006 0-.004 0-.006 0-.004 0-.006 0-.004 0-.006 0-.004 0-.006 0c-.003 0-.005 0-.007 0s-.004 0-.006 0-.004 0-.006 0-.004 0-.006 0-.004 0-.006 0-.004 0-.006 0-.005 0-.007 0-.004 0-.006 0-.004 0-.006 0-.004 0-.006 0-.004 0-.006 0-.004 0-.006 0-.005 0-.007 0-.004 0-.006 0-.004 0-.006 0-.004 0-.006 0-.004 0-.006 0-.004 0-.006 0-.005 0-.007 0-.004 0-.006 0-.004 0-.006 0-.004 0-.006 0-.004 0-.006 0-.004 0-.006 0-.005 0-.007 0-.004 0-.006 0-.004 0-.006 0-.004 0-.006 0-.004 0-.006 0-.004 0-.006 0-.004 0-.007 0c-.002 0-.004 0-.006 0s-.004 0-.006 0-.004 0-.006 0-.004 0-.006 0-.004 0-.006 0-.004 0-.007 0c-.002 0-.004 0-.006 0s-.004 0-.006 0-.004 0-.006 0-.004 0-.006 0-.004 0-.006 0-.004 0-.007 0c-.002 0-.004 0-.006 0s-.004 0-.006 0-.004 0-.006 0-.004 0-.006 0-.004 0-.006 0-.004 0-.006 0c-.003 0-.005 0-.007 0s-.004 0-.006 0-.004 0-.006 0-.004 0-.006 0-.004 0-.006 0-.004 0-.006 0c-.003 0-.005 0-.007 0s-.004 0-.006 0-.004 0-.006 0-.004 0-.006 0-.004 0-.006 0-.004 0-.006 0c-.003 0-.005 0-.007 0s-.004 0-.006 0-.004 0-.006 0-.004 0-.006 0-.004 0-.006 0-.004 0-.006 0c-.003 0-.005 0-.007 0s-.004 0-.006 0-.004 0-.006 0-.004 0-.006 0-.004 0-.006 0-.004 0-.006 0-.005 0-.007 0-.004 0-.006 0-.004 0-.006 0-.004 0-.006 0-.004 0-.006 0-.004 0-.006 0-.005 0-.007 0-.004 0-.006 0-.004 0-.006 0-.004 0-.006 0-.004 0-.006 0-.004 0-.006 0-.005 0-.007 0-.004 0-.006 0-.004 0-.006 0-.004 0-.006 0-.004 0-.006 0-.004 0-.006 0-.004 0-.007 0c-.002 0-.004 0-.006 0s-.004 0-.006 0-.004 0-.006 0-.004 0-.006 0-.004 0-.006 0-.004 0-.007 0c-.002 0-.004 0-.006 0s-.004 0-.006 0-.004 0-.006 0-.004 0-.006 0-.004 0-.006 0-.004 0-.007 0c-.002 0-.004 0-.006 0s-.004 0-.006 0-.004 0-.006 0-.004 0-.006 0-.004 0-.006 0-.004 0-.007 0c-.002 0-.004 0-.006 0s-.004 0-.006 0-.004 0-.006 0-.004 0-.006 0-.004 0-.006 0-.004 0-.006 0c-.003 0-.005 0-.007 0s-.004 0-.006 0-.004 0-.006 0-.004 0-.006 0-.004 0-.006 0-.004 0-.006 0c-.003 0-.005 0-.007 0s-.004 0-.006 0-.004 0-.006 0-.004 0-.006 0-.004 0-.006 0-.004 0-.006 0c-.003 0-.005 0-.007 0s-.004 0-.006 0-.004 0-.006 0-.004 0-.006 0-.004 0-.006 0-.004 0-.006 0-.005 0-.007 0-.004 0-.006 0-.004 0-.006 0-.004 0-.006 0-.004 0-.006 0-.004 0-.006 0-.005 0-.007 0-.004 0-.006 0-.004 0-.006 0-.004 0-.006 0-.004 0-.006 0-.004 0-.006 0-.005 0-.007 0-.004 0-.006 0-.004 0-.006 0-.004 0-.006 0-.004 0-.006 0-.004 0-.006 0-.005 0-.007 0-.004 0-.006 0-.004 0-.006 0-.004 0-.006 0-.004 0-.006 0-.004 0-.006 0-.004 0-.007 0c-.002 0-.004 0-.006 0s-.004 0-.006 0-.004 0-.006 0-.004 0-.006 0-.004 0-.006 0-.004 0-.007 0c-.002 0-.004 0-.006 0s-.004 0-.006 0-.004 0-.006 0-.004 0-.006 0-.004 0-.006 0-.004 0-.007 0c-.002 0-.004 0-.006 0s-.004 0-.006 0-.004 0-.006 0-.004 0-.006 0-.004 0-.006 0-.004 0-.006 0c-.003 0-.005 0-.007 0s-.004 0-.006 0-.004 0-.006 0-.004 0-.006 0-.004 0-.006 0-.004 0-.006 0c-.003 0-.005 0-.007 0s-.004 0-.006 0-.004 0-.006 0-.004 0-.006 0-.004 0-.006 0-.004 0-.006 0c-.003 0-.005 0-.007 0s-.004 0-.006 0-.004 0-.006 0-.004 0-.006 0-.004 0-.006 0-.004 0-.006 0c-.003 0-.005 0-.007 0s-.004 0-.006 0-.004 0-.006 0-.004 0-.006 0-.004 0-.006 0-.004 0-.006 0-.005 0-.007 0-.004 0-.006 0-.004 0-.006 0-.004 0-.006 0-.004 0-.006 0-.004 0-.006 0-.005 0-.007 0-.004 0-.006 0-.004 0-.006 0-.004 0-.006 0-.004 0-.006 0-.004 0-.006 0-.005 0-.007 0-.004 0-.006 0-.004 0-.006 0-.004 0-.006 0-.004 0-.006 0-.004 0-.006 0-.004 0-.007 0c-.002 0-.004 0-.006 0s-.004 0-.006 0-.004 0-.006 0-.004 0-.006 0-.004 0-.006 0-.004 0-.007 0c-.002 0-.004 0-.006 0s-.004 0-.006 0-.004 0-.006 0-.004 0-.006 0-.004 0-.006 0-.004 0-.007 0c-.002 0-.004 0-.006 0s-.004 0-.006 0-.004 0-.006 0-.004 0-.006 0-.004 0-.006 0-.004 0-.007 0c-.002 0-.004 0-.006 0s-.004 0-.006 0-.004 0-.006 0-.004 0-.006 0-.004 0-.006 0-.004 0-.006 0c-.003 0-.005 0-.007 0s-.004 0-.006 0-.004 0-.006 0-.004 0-.006 0-.004 0-.006 0-.004 0-.006 0c-.003 0-.005 0-.007 0s-.004 0-.006 0-.004 0-.006 0-.004 0-.006 0-.004 0-.006 0-.004 0-.006 0c-.003 0-.005 0-.007 0s-.004 0-.006 0-.004 0-.006 0-.004 0-.006 0-.004 0-.006 0-.004 0-.006 0-.005 0-.007 0-.004 0-.006 0-.004 0-.006 0-.004 0-.006 0-.004 0-.006 0-.004 0-.006 0v2h.006.006.006.006.006.007.006.006.006.006.006.007.006.006.006.006.006.007.006.006.006.006.006.007.006.006.006.006.006.006.007.006.006.006.006.006.007.006.006.006.006.006.007.006.006.006.006.006.007.006.006.006.006.006.007.006.006.006.006.006.007.006.006.006.006.006.007.006.006.006.006.006.007.006.006.006.006.006.007.006.006.006.006.006.007.006.006.006.006.006.007.006.006.006.006.006.006.007.006.006.006.006.006.007.006.006.006.006.006.007.006.006.006.006.006.007.006.006.006.006.006.007.006.006.006.006.006.007.006.006.006.006.006.007.006.006.006.006.006.007.006.006.006.006.006.007.006.006.006.006.006.007.006.006.006.006.006.006.007.006.006.006.006.006.007.006.006.006.006.006.007.006.006.006.006.006.007.006.006.006.006.006.007.006.006.006.006.006.007.006.006.006.006.006.007.006.006.006.006.006.007.006.006.006.006.006.007.006.006.006.006.006.007.006.006.006.006.006.007.006.006.006.006.006.006.007.006.006.006.006.006.007.006.006.006.006.006.007.006.006.006.006.006.007.006.006.006.006.006.007.006.006.006.006.006.007.006.006.006.006.006.007.006.006.006.006.006.007.006.006.006.006.006.007.006.006.006.006.006.007.006.006.006.006.006.006.007.006.006.006.006.006.007.006.006.006.006.006.007.006.006.006.006.006.007.006.006.006.006.006.007.006.006.006.006.006.007.006.006.006.006.006.007.006.006.006.006.006.007.006.006.006.006.006.007.006.006.006.006.006.007.006.006.006.006.006.007.006.006.006.006.006.006.007.006.006.006.006.006.007.006.006.006.006.006.007.006.006.006.006.006.007.006.006.006.006.006.007.006.006.006.006.006.007.006.006.006.006.006.007.006.006.006.006.006.007.006.006.006.006.006.007.006.006.006.006.006.007.006.006.006.006.006.006.007.006.006.006.006.006.007.006.006.006.006.006.007.006.006.006.006.006.007.006.006.006.006.006.007.006.006.006.006.006.007.006.006.006.006.006.007.006.006.006.006.006.007.006.006.006.006.006.007.006.006.006.006.006.007.006.006.006.006.006.007.006.006.006.006.006.006.007.006.006.006.006.006.007.006.006.006.006.006.007.006.006.006.006.006.007.006.006.006.006.006.007.006.006.006.006.006.007zm-3.156 0c-1.107 0-2.295.09218-3.561.27307l.283 1.9799c1.189-.1698 2.28-.25297 3.278-.25297zm-3.506.26676-63.646 5.52296.173 1.9925 63.646-5.52295zm-64.559 6.51926v194.883h2v-194.883zm1.085 195.879 39.976-3.419-.171-1.992-39.976 3.419zm40.891-4.415v-69.432h-2v69.432zm-.908-68.436 11.309-1.052-.185-1.992-11.309 1.052zm10.339-1.569 37.609 68.906 1.755-.958-37.609-68.906zm38.574 69.423 44.973-3.945-.175-1.992-44.973 3.945zm45.758-5.43-43.658-77.848-1.745.978 43.658 77.848zm-94.673-150.0031 17.358-1.578-.181-1.9918-17.358 1.578zm17.268-1.5739h2.893v-2h-2.893zm2.893 0c5.566 0 10.139 1.6795 13.792 4.9999l1.345-1.4798c-4.062-3.6929-9.132-5.5201-15.137-5.5201zm13.828 5.031c3.693 3.0507 5.686 8.5525 5.686 16.85h2c0-8.5345-2.04-14.78-6.413-18.392zm5.686 16.85c0 8.6132-2.067 15.1908-6.072 19.8632l1.519 1.3016c4.411-5.1463 6.553-12.2447 6.553-21.1648zm-6.06 19.8496c-4.017 4.5192-9.469 7.1416-16.445 7.8221l.195 1.9906c7.401-.7221 13.346-3.5351 17.745-8.4839zm-16.438 7.8215-17.358 1.578.181 1.9919 17.358-1.5781zm-16.267 2.5739v-51.548h-2v51.548zm28.511-7.3393c6.49-4.6356 9.624-12.3681 9.624-22.9057h-2c0 10.1517-3.003 17.1472-8.787 21.2783zm9.624-22.9057c0-1.2744-.091-2.4697-.277-3.5834l-1.973.3288c.165.9903.25 2.0743.25 3.2546zm-.263-3.419c0-1.1078-.093-2.2148-.277-3.3204l-1.973.3288c.167.9984.25 1.9954.25 2.9916zm-1.354-4.1519-8.679.789.181 1.9918 8.679-.789zm-9.588 1.7849v27.878h2v-27.878zm212.54 143.072-.858.514.15.25.261.13zm-21.303-35.505.857-.514-1.857-3.096v3.61zm0 49.97.087.996.913-.08v-.916zm-44.973 3.945-.447.894.253.127.281-.025zm-26.3-13.15h-1v.618l.553.276zm0-199.88-.087-.9962-.913.0801v.9161zm44.973-3.945.447-.89443-.253-.12646-.281.02471zm26.3 13.15h1v-.618l-.553-.2764zm0 14.202h-1v3.5365l1.852-3.0128zm17.621-28.667-.088-.99614-.501.04411-.263.42837zm50.759-4.47101.447-.89442-.253-.12655-.282.02483zm26.3 13.15001.843.5376.597-.9357-.993-.4963zm-59.701 93.628-.843-.538-.336.527.326.533zm64.961 106.252.085.996 1.612-.137-.844-1.381zm-52.337 4.471-.447.894.252.126.28-.024zm15.78-214.34502.843.53767 1.093-1.71455-2.025.18085zm-44.184 3.94502-.089-.99604-.501.04475-.263.42926zm-48.129 78.637h-1v3.5495l1.853-3.0275zm0-77.059h1v-1.0898l-1.086.0935zm-39.713 3.419-.086-.9963-.914.0787v.9176zm0 194.62h-1v1.083l1.079-.086zm39.713-3.156.079.997.921-.073v-.924zm0-56.019-.841-.541-.159.247v.294zm9.994-15.517.859-.512-.826-1.386-.874 1.357zm41.554 69.695-.859.512.322.541.627-.057zm46.288-4.208.09.996 1.602-.146-.839-1.372zm-63.383-103.622-.843-.5377-.336.5267.326.5328zm16.637 109.946-21.303-35.505-1.715 1.028 21.303 35.505zm-23.16-34.991v49.97h2v-49.97zm.913 48.974-44.973 3.945.174 1.992 44.973-3.945zm-44.439 4.047-26.3-13.15-.894 1.788 26.3 13.15zm-25.747-12.256v-199.88h-2v199.88zm-.913-198.8838 44.973-3.94503-.174-1.99235-44.973 3.94498zm44.439-4.04678 26.3 13.14998.894-1.7888-26.3-13.15003zm25.747 12.25558v14.202h2v-14.202zm1.852 14.7257 17.621-28.66704-1.704-1.04732-17.621 28.66696zm16.857-28.19456 50.759-4.471-.176-1.99229-50.759 4.47101zm50.224-4.57272 26.3 13.14998.894-1.7888-26.3-13.15003zm25.904 11.71798-59.701 93.6276 1.686 1.076 59.701-93.6284zm-59.711 94.6876 64.961 106.252 1.706-1.044-64.961-106.252zm65.729 104.734-52.337 4.471.17 1.992 52.337-4.471zm-51.805 4.573-26.3-13.15-.894 1.788 26.3 13.15zm15.244-214.44705-44.184 3.94501.178 1.99204 44.184-3.94498zm-44.948 4.41902-48.129 78.63703 1.706 1.044 48.129-78.637zm-46.276 79.15903v-77.059h-2v77.059zm-1.086-78.0553-39.713 3.419.172 1.9926 39.713-3.419zm-40.627 4.4153v194.62h2v-194.62zm1.079 195.617 39.713-3.156-.158-1.994-39.713 3.156zm40.634-4.153v-56.019h-2v56.019zm-.159-55.478 9.994-15.517-1.682-1.082-9.994 15.517zm8.294-15.546 41.554 69.695 1.718-1.024-41.554-69.695zm42.503 70.179 46.288-4.208-.181-1.992-46.288 4.208zm47.051-5.726-63.383-103.6218-1.706 1.0436 63.383 103.6222zm-63.393-102.5623 57.86-90.73505-1.686-1.07533-57.86 90.73498zm139.767 111.2373h-1v.624l.56.274zm0-140.442h1v-1.0825l-1.079.0856zm-16.569 1.315-.447.8944.249.1245.277-.022zm-26.3-13.15h-1v.618l.553.2764zm0-44.184-.088-.9961-.912.0805v.9156zm130.974-11.572008.448-.894427-.254-.126609-.282.024917zm26.3 13.150008h1v-.618l-.552-.2764zm0 44.184.086.9963.914-.0785v-.9178zm-42.869 3.682-.085-.9963-.915.0785v.9178zm0 155.696.093.996.907-.085v-.911zm-45.236 4.208-.44.898.253.124.28-.026zm59.175-179.103.086.9963.914-.0785v-.9178zm0-38.92401h1v-1.09172l-1.087.09555zm-125.714 11.04601-.087-.9962-.913.0802v.916zm0 38.924h-1v1.0896l1.086-.0933zm42.869-3.682h1v-1.0896l-1.085.0933zm0 155.959h-1v1.089l1.086-.093zm39.976-3.419.086.996.914-.078v-.918zm0-156.222-.085-.9963-.915.0785v.9178zm-41.606 162.534v-140.442h-2v140.442zm-1.079-141.4389-16.569 1.315.158 1.9938 16.569-1.315zm-16.042 1.4175-26.3-13.15-.895 1.7888 26.3 13.15zm-25.748-12.2556v-44.184h-2v44.184zm-.912-43.1879 130.974-11.57199-.176-1.992237-130.974 11.572027zm130.439-11.67368 26.3 13.14998.895-1.7888-26.3-13.150035zm25.747 12.25558v44.184h2v-44.184zm.915 43.1877-42.869 3.682.171 1.9926 42.869-3.682zm-43.784 4.6783v155.696h2v-155.696zm.908 154.7-45.236 4.208.185 1.992 45.236-4.208zm-44.704 4.306-26.3-12.887-.88 1.796 26.3 12.887zm59.735-178.205v-38.92401h-2v38.92401zm-1.087-39.92018-125.714 11.04598.175 1.9923 125.714-11.04595zm-126.627 12.04218v38.924h2v-38.924zm1.086 39.9203 42.869-3.682-.171-1.9926-42.869 3.682zm41.783-4.6783v155.959h2v-155.959zm1.086 156.955 39.976-3.419-.171-1.992-39.976 3.419zm40.89-4.415v-156.222h-2v156.222zm-.914-155.2257 42.869-3.682-.171-1.9926-42.869 3.682z"/></g></svg>