<svg fill="none" height="512" viewBox="0 0 512 512" width="512" xmlns="http://www.w3.org/2000/svg"><path d="m0 0h512v512h-512z" fill="none"/><g fill="#f8f8f8"><path d="m135.029 241.52v-144.4l80.18-7.03 19 9.5v30.97l-47.31 3.99v11.78l21.47-1.9 19 9.5v30.97l-40.47 3.42v59.66l-32.87 3.04zm71.44-67.83v-27.17l-40.47 3.42v-26.6l47.31-3.99v-27.17l-76.38 6.65v140.79l29.07-2.66v-59.85zm129.068 64.41-13.49-24.32v34.58l-32.68 2.85-19-9.5v-144.4l47.69-4.18c1.013-.1267 1.963-.19 2.85-.19h2.85c7.347 0 14.44 1.14 21.28 3.42s12.983 5.637 18.43 10.07 9.753 9.817 12.92 16.15c3.167 6.207 4.75 13.3 4.75 21.28 0 20.14-7.347 34.643-22.04 43.51l32.11 57.19-36.67 3.04zm1.9-60.99c7.853-4.307 13.617-10.007 17.29-17.1s5.51-15.643 5.51-25.65c0-11.78-3.293-21.28-9.88-28.5-6.46-7.3467-15.58-11.02-27.36-11.02-.76 0-1.52 0-2.28 0s-1.583.0633-2.47.19l-45.98 3.99v140.79l28.88-2.47v-50.16l8.17-.76 27.17 49.78 32.49-2.85zm-36.29-53.2 12.54-1.14h2.09c4.18 0 7.663 1.267 10.45 3.8 2.913 2.407 4.37 6.65 4.37 12.73 0 6.333-1.52 11.273-4.56 14.82-3.04 3.42-7.157 5.383-12.35 5.89l-12.54 1.14zm20.9 31.35c4.433-3.167 6.65-8.487 6.65-15.96 0-.887-.063-1.71-.19-2.47 0-.76-.063-1.52-.19-2.28l-6.27.57zm-120.602 280.22-15.39-25.65v36.1l-32.49 2.85-19-9.5v-144.4l32.49-2.85 19 9.5v10.26l12.73-20.71 36.67-3.23 19 9.5-43.13 67.64 46.93 76.76-37.81 3.23zm30.4-145.35-31.92 2.85-34.77 56.81v-55.67l-28.69 2.47v140.6l28.69-2.28v-40.47l7.22-11.21 30.02 50.35 33.44-3.04-45.79-74.86zm73.082 146.3v-101.46l-11.97.95-19-9.5v-31.92l94.62-8.36 19 9.5v31.92l-30.97 2.66v112.48l-32.68 3.04zm61.75-120.08v-28.12l-90.82 7.98v28.12l30.97-2.66v112.67l28.88-2.47v-112.86z"/><path d="m135.029 241.52h-1.5v.927l.829.415zm0-144.4-.131-1.4943-1.369.1201v1.3742zm80.18-7.03.671-1.3416-.379-.1897-.423.037zm19 9.5h1.5v-.9271l-.829-.4145zm0 30.97.126 1.495 1.374-.116v-1.379zm-47.31 3.99-.126-1.495-1.374.116v1.379zm0 11.78h-1.5v1.639l1.632-.145zm21.47-1.9.671-1.342-.38-.19-.423.038zm19 9.5h1.5v-.927l-.829-.415zm0 30.97.126 1.495 1.374-.116v-1.379zm-40.47 3.42-.126-1.495-1.374.116v1.379zm0 59.66.138 1.494 1.362-.126v-1.368zm-32.87 3.04-.671 1.342.383.191.426-.039zm52.44-77.33.126 1.495 1.374-.116v-1.379zm0-27.17h1.5v-1.632l-1.626.137zm-40.47 3.42h-1.5v1.632l1.626-.137zm0-26.6-.126-1.495-1.374.116v1.379zm47.31-3.99.126 1.495 1.374-.116v-1.379zm0-27.17h1.5v-1.6363l-1.63.1419zm-76.38 6.65-.13-1.4944-1.37.1193v1.3751zm0 140.79h-1.5v1.644l1.637-.15zm29.07-2.66.137 1.494 1.363-.125v-1.369zm0-59.85-.126-1.495-1.374.116v1.379zm-29.47 64.41v-144.4h-3v144.4zm-1.369-142.9057 80.18-7.03-.262-2.9886-80.18 7.03zm79.378-7.1827 19 9.5004 1.342-2.6836-19-9.5zm18.171 8.1584v30.97h3v-30.97zm1.374 29.475-47.31 3.99.252 2.99 47.31-3.99zm-48.684 5.485v11.78h3v-11.78zm1.632 13.274 21.47-1.9-.264-2.988-21.47 1.9zm20.667-2.052 19 9.5 1.342-2.684-19-9.5zm18.171 8.158v30.97h3v-30.97zm1.374 29.475-40.47 3.42.252 2.99 40.47-3.42zm-41.844 4.915v59.66h3v-59.66zm1.362 58.166-32.87 3.04.276 2.988 32.87-3.04zm-32.061 3.192-19-9.5-1.342 2.684 19 9.5zm53.269-75.988v-27.17h-3v27.17zm-1.626-28.665-40.47 3.42.252 2.99 40.47-3.42zm-38.844 4.915v-26.6h-3v26.6zm-1.374-25.105 47.31-3.99-.252-2.99-47.31 3.99zm48.684-5.485v-27.17h-3v27.17zm-1.63-28.6644-76.38 6.65.26 2.9884 76.38-6.6497zm-77.75 8.1444v140.79h3v-140.79zm1.637 142.284 29.07-2.66-.274-2.988-29.07 2.66zm30.433-4.154v-59.85h-3v59.85zm-1.374-58.355 40.47-3.42-.252-2.99-40.47 3.42zm169.412 59.495-1.312.728.226.406.415.208zm-13.49-24.32 1.312-.728-2.812-5.069v5.797zm0 34.58.13 1.494 1.37-.119v-1.375zm-32.68 2.85-.671 1.342.379.189.422-.037zm-19-9.5h-1.5v.927l.829.415zm0-144.4-.131-1.4943-1.369.12v1.3743zm47.69-4.18.131 1.4943.028-.0025.027-.0034zm26.98 3.23-.474 1.423zm18.43 10.07-.947 1.163zm12.92 16.15-1.342.671.006.011zm-17.29 64.79-.775-1.284-1.245.751.712 1.267zm32.11 57.19.124 1.495 2.327-.193-1.143-2.036zm-36.67 3.04-.671 1.342.376.188.419-.035zm-17.1-70.49-.721-1.315-1.328.728.741 1.321zm17.29-17.1-1.332-.69zm-4.37-54.15-1.126.99.009.011.009.01zm-32.11-10.83.13 1.4944.041-.0036.041-.0059zm-45.98 3.99-.13-1.4944-1.37.1189v1.3755zm0 140.79h-1.5v1.634l1.628-.139zm28.88-2.47.128 1.495 1.372-.118v-1.377zm0-50.16-.139-1.494-1.361.127v1.367zm8.17-.76 1.317-.719-.473-.866-.983.091zm27.17 49.78-1.317.719.471.861.977-.086zm32.49-2.85.131 1.494 2.313-.203-1.136-2.025zm-67.83-109.44-.136-1.494-1.364.124v1.37zm12.54-1.14v-1.5h-.068l-.068.006zm12.54 3.8-1.009 1.11.026.024.028.022zm-.19 27.55 1.121.997.009-.011.009-.01zm-12.35 5.89.136 1.494.01-.001zm-12.54 1.14h-1.5v1.643l1.636-.149zm20.9-5.89h-1.5v2.915l2.372-1.694zm6.46-18.43h-1.5v.124l.02.123zm-.19-2.28 1.48-.247-.229-1.373-1.387.126zm-6.27.57-.136-1.494-1.364.124v1.37zm14.802 102.252-13.49-24.32-2.624 1.456 13.49 24.32zm-16.302-23.592v34.58h3v-34.58zm1.37 33.086-32.68 2.85.26 2.988 32.68-2.85zm-31.879 3.002-19-9.5-1.342 2.684 19 9.5zm-18.171-8.158v-144.4h-3v144.4zm-1.369-142.9057 47.69-4.18-.262-2.9886-47.69 4.18zm47.745-4.1859c.961-.1201 1.848-.1784 2.664-.1784v-3c-.957 0-1.97.0683-3.036.2016zm2.664-.1784h.006.006.006.006.006.006.006.005.006.006.006.006.006.006.006.006.006.006.006.005.006.006.006.006.006.006.006.006.006.006.005.006.006.006.006.006.006.006.005.006.006.006.006.006.006.006.005.006.006.006.006.006.006.006.005.006.006.006.006.006.006.005.006.006.006.006.006.005.006.006.006.006.006.005.006.006.006.006.006.005.006.006.006.006.005.006.006.006.006.006.005.006.006.006.006.005.006.006.006.006.005.006.006.006.005.006.006.006.006.005.006.006.006.005.006.006.006.006.005.006.006.006.005.006.006.006.005.006.006.006.005.006.006.006.005.006.006.006.005.006.006.006.005.006.006.005.006.006.006.005.006.006.006.005.006.006.005.006.006.005.006.006.006.005.006.006.005.006.006.005.006.006.006.005.006.006.005.006.006.005.006.006.005.006.006.005.006.006.005.006.006.005.006.006.005.006.006.005.006.006.005.006.005.006.006.005.006.006.005.006.006.005.006.005.006.006.005.006.006.005.006.005.006.006.005.006.006.005.006.005.006.006.005.006.005.006.006.005.006.005.006.005.006.006.005.006.005.006.006.005.006.005.006.005.006.006.005.006.005.006.005.006.005.006.006.005.006.005.006.005.006.005.006.005.006.006.005.006.005.006.005.006.005.006.005.006.005.006.005.006.005.006.006.005.006.005.006.005.006.005.006.005.006.005.006.005.006.005.006.005.005.006.005.006.005.006.005.006.005.006.005.006.005.006.005.006.005.006.005.005.006.005.006.005.006.005.006.005.006.005.005.006.005.006.005.006.005.006.005.005.006.005.006.005.006.005.005.006.005.006.005.005.006.005.006.005.005.006.005.006.005.005.006.005.006.005.005.006.005.006.005.005.006.005.006.005.005.006.005.005.006.005.006.005.005.006.005.005.006.005.005.006.005.005.006.005.006.005.005.006.005.005.006.005.005.006.005.005.006.005.005.006.005.005.006.005.005.006.005.005.005.006.005.005.006.005.005.006.005.005.006.005.005.005.006.005.005.006.005.005.005.006.005.005.006.005.005.005.006.005.005.005.006.005.005.006.005.005.005.006.005.005.005.006.005.005.005.006.005.005.005.006.005.005.005.005.006.005.005.005.006.005.005.005.006.005.005.005.005.006.005.005.005.005.006.005.005.005.005.006.005.005v-3c-.002 0-.003 0-.005 0s-.004 0-.005 0c-.002 0-.004 0-.006 0-.001 0-.003 0-.005 0-.001 0-.003 0-.005 0s-.003 0-.005 0-.004 0-.005 0c-.002 0-.004 0-.006 0-.001 0-.003 0-.005 0s-.003 0-.005 0-.003 0-.005 0-.004 0-.005 0c-.002 0-.004 0-.006 0-.001 0-.003 0-.005 0s-.003 0-.005 0-.004 0-.005 0c-.002 0-.004 0-.005 0-.002 0-.004 0-.006 0-.001 0-.003 0-.005 0s-.003 0-.005 0-.004 0-.005 0c-.002 0-.004 0-.006 0-.001 0-.003 0-.005 0s-.003 0-.005 0-.004 0-.005 0c-.002 0-.004 0-.006 0-.001 0-.003 0-.005 0s-.003 0-.005 0-.003 0-.005 0-.004 0-.005 0c-.002 0-.004 0-.006 0-.001 0-.003 0-.005 0s-.003 0-.005 0-.004 0-.005 0c-.002 0-.004 0-.006 0-.001 0-.003 0-.005 0s-.003 0-.005 0-.004 0-.005 0c-.002 0-.004 0-.006 0-.001 0-.003 0-.005 0s-.003 0-.005 0-.004 0-.005 0c-.002 0-.004 0-.006 0-.001 0-.003 0-.005 0s-.003 0-.005 0-.004 0-.005 0c-.002 0-.004 0-.006 0-.001 0-.003 0-.005 0s-.004 0-.005 0c-.002 0-.004 0-.006 0-.001 0-.003 0-.005 0s-.003 0-.005 0-.004 0-.005 0c-.002 0-.004 0-.006 0-.001 0-.003 0-.005 0s-.003 0-.005 0-.004 0-.005 0c-.002 0-.004 0-.006 0-.001 0-.003 0-.005 0s-.004 0-.005 0c-.002 0-.004 0-.006 0-.001 0-.003 0-.005 0s-.003 0-.005 0-.004 0-.005 0c-.002 0-.004 0-.006 0-.001 0-.003 0-.005 0s-.004 0-.005 0c-.002 0-.004 0-.006 0-.001 0-.003 0-.005 0s-.003 0-.005 0-.004 0-.005 0c-.002 0-.004 0-.006 0s-.003 0-.005 0-.004 0-.005 0c-.002 0-.004 0-.006 0-.001 0-.003 0-.005 0s-.004 0-.005 0c-.002 0-.004 0-.006 0-.001 0-.003 0-.005 0s-.003 0-.005 0-.004 0-.006 0c-.001 0-.003 0-.005 0s-.003 0-.005 0-.004 0-.005 0c-.002 0-.004 0-.006 0s-.003 0-.005 0-.004 0-.005 0c-.002 0-.004 0-.006 0s-.003 0-.005 0-.004 0-.005 0c-.002 0-.004 0-.006 0s-.003 0-.005 0-.004 0-.005 0c-.002 0-.004 0-.006 0s-.003 0-.005 0-.004 0-.005 0c-.002 0-.004 0-.006 0s-.003 0-.005 0-.004 0-.005 0c-.002 0-.004 0-.006 0s-.003 0-.005 0-.004 0-.005 0c-.002 0-.004 0-.006 0s-.003 0-.005 0-.004 0-.005 0c-.002 0-.004 0-.006 0s-.003 0-.005 0-.004 0-.006 0c-.001 0-.003 0-.005 0s-.003 0-.005 0-.004 0-.006 0c-.001 0-.003 0-.005 0s-.004 0-.005 0c-.002 0-.004 0-.006 0-.001 0-.003 0-.005 0s-.004 0-.005 0c-.002 0-.004 0-.006 0s-.003 0-.005 0-.004 0-.005 0c-.002 0-.004 0-.006 0s-.003 0-.005 0-.004 0-.006 0c-.001 0-.003 0-.005 0s-.004 0-.005 0c-.002 0-.004 0-.006 0-.001 0-.003 0-.005 0s-.004 0-.005 0c-.002 0-.004 0-.006 0s-.003 0-.005 0-.004 0-.006 0c-.001 0-.003 0-.005 0s-.004 0-.005 0c-.002 0-.004 0-.006 0s-.003 0-.005 0-.004 0-.006 0c-.001 0-.003 0-.005 0s-.004 0-.005 0c-.002 0-.004 0-.006 0s-.003 0-.005 0-.004 0-.006 0c-.001 0-.003 0-.005 0s-.004 0-.005 0c-.002 0-.004 0-.006 0s-.003 0-.005 0-.004 0-.006 0c-.001 0-.003 0-.005 0s-.004 0-.005 0c-.002 0-.004 0-.006 0s-.003 0-.005 0-.004 0-.006 0c-.001 0-.003 0-.005 0s-.004 0-.005 0c-.002 0-.004 0-.006 0s-.003 0-.005 0-.004 0-.006 0c-.001 0-.003 0-.005 0s-.004 0-.005 0c-.002 0-.004 0-.006 0s-.004 0-.005 0c-.002 0-.004 0-.006 0s-.003 0-.005 0-.004 0-.006 0c-.001 0-.003 0-.005 0s-.004 0-.005 0c-.002 0-.004 0-.006 0s-.004 0-.005 0c-.002 0-.004 0-.006 0s-.003 0-.005 0-.004 0-.006 0c-.001 0-.003 0-.005 0s-.004 0-.006 0c-.001 0-.003 0-.005 0s-.004 0-.005 0c-.002 0-.004 0-.006 0s-.004 0-.005 0c-.002 0-.004 0-.006 0s-.003 0-.005 0-.004 0-.006 0-.003 0-.005 0-.004 0-.006 0c-.001 0-.003 0-.005 0s-.004 0-.006 0c-.001 0-.003 0-.005 0s-.004 0-.005 0c-.002 0-.004 0-.006 0s-.004 0-.005 0c-.002 0-.004 0-.006 0s-.003 0-.005 0-.004 0-.006 0-.003 0-.005 0-.004 0-.006 0-.003 0-.005 0-.004 0-.006 0c-.001 0-.003 0-.005 0s-.004 0-.006 0c-.001 0-.003 0-.005 0s-.004 0-.006 0c-.001 0-.003 0-.005 0s-.004 0-.006 0c-.001 0-.003 0-.005 0s-.004 0-.006 0c-.001 0-.003 0-.005 0s-.004 0-.005 0c-.002 0-.004 0-.006 0s-.004 0-.005 0c-.002 0-.004 0-.006 0s-.004 0-.005 0c-.002 0-.004 0-.006 0s-.004 0-.005 0c-.002 0-.004 0-.006 0s-.004 0-.005 0c-.002 0-.004 0-.006 0s-.004 0-.005 0c-.002 0-.004 0-.006 0s-.004 0-.005 0c-.002 0-.004 0-.006 0s-.004 0-.005 0c-.002 0-.004 0-.006 0s-.004 0-.005 0c-.002 0-.004 0-.006 0s-.004 0-.006 0c-.001 0-.003 0-.005 0s-.004 0-.006 0c-.001 0-.003 0-.005 0s-.004 0-.006 0c-.001 0-.003 0-.005 0s-.004 0-.006 0c-.001 0-.003 0-.005 0s-.004 0-.006 0-.003 0-.005 0-.004 0-.006 0-.003 0-.005 0-.004 0-.006 0-.004 0-.005 0c-.002 0-.004 0-.006 0s-.004 0-.005 0c-.002 0-.004 0-.006 0s-.004 0-.006 0c-.001 0-.003 0-.005 0s-.004 0-.006 0c-.001 0-.003 0-.005 0s-.004 0-.006 0-.003 0-.005 0-.004 0-.006 0-.003 0-.005 0-.004 0-.006 0-.004 0-.005 0c-.002 0-.004 0-.006 0s-.004 0-.006 0c-.001 0-.003 0-.005 0s-.004 0-.006 0-.003 0-.005 0-.004 0-.006 0-.003 0-.005 0-.004 0-.006 0-.004 0-.005 0c-.002 0-.004 0-.006 0s-.004 0-.006 0c-.001 0-.003 0-.005 0s-.004 0-.006 0-.003 0-.005 0-.004 0-.006 0-.004 0-.005 0c-.002 0-.004 0-.006 0s-.004 0-.006 0c-.001 0-.003 0-.005 0s-.004 0-.006 0-.004 0-.005 0c-.002 0-.004 0-.006 0s-.004 0-.006 0c-.001 0-.003 0-.005 0s-.004 0-.006 0-.003 0-.005 0-.004 0-.006 0-.004 0-.005 0c-.002 0-.004 0-.006 0s-.004 0-.006 0-.003 0-.005 0-.004 0-.006 0-.004 0-.005 0c-.002 0-.004 0-.006 0s-.004 0-.006 0-.003 0-.005 0-.004 0-.006 0-.004 0-.005 0c-.002 0-.004 0-.006 0s-.004 0-.006 0-.003 0-.005 0-.004 0-.006 0-.004 0-.006 0c-.001 0-.003 0-.005 0s-.004 0-.006 0-.004 0-.005 0c-.002 0-.004 0-.006 0s-.004 0-.006 0-.003 0-.005 0-.004 0-.006 0-.004 0-.006 0c-.001 0-.003 0-.005 0s-.004 0-.006 0-.004 0-.005 0c-.002 0-.004 0-.006 0s-.004 0-.006 0-.003 0-.005 0-.004 0-.006 0-.004 0-.006 0c-.001 0-.003 0-.005 0s-.004 0-.006 0-.004 0-.006 0c-.001 0-.003 0-.005 0s-.004 0-.006 0-.004 0-.005 0c-.002 0-.004 0-.006 0s-.004 0-.006 0-.004 0-.005 0c-.002 0-.004 0-.006 0s-.004 0-.006 0-.003 0-.005 0-.004 0-.006 0-.004 0-.006 0-.003 0-.005 0-.004 0-.006 0-.004 0-.006 0-.003 0-.005 0-.004 0-.006 0-.004 0-.006 0-.003 0-.005 0-.004 0-.006 0-.004 0-.006 0-.003 0-.005 0-.004 0-.006 0-.004 0-.006 0-.003 0-.005 0-.004 0-.006 0-.004 0-.006 0-.004 0-.005 0c-.002 0-.004 0-.006 0s-.004 0-.006 0-.004 0-.005 0c-.002 0-.004 0-.006 0s-.004 0-.006 0-.004 0-.006 0c-.001 0-.003 0-.005 0s-.004 0-.006 0-.004 0-.006 0-.003 0-.005 0-.004 0-.006 0-.004 0-.006 0-.004 0-.005 0c-.002 0-.004 0-.006 0s-.004 0-.006 0-.004 0-.006 0c-.001 0-.003 0-.005 0s-.004 0-.006 0-.004 0-.006 0-.003 0-.005 0-.004 0-.006 0-.004 0-.006 0-.004 0-.005 0c-.002 0-.004 0-.006 0s-.004 0-.006 0-.004 0-.006 0-.003 0-.005 0-.004 0-.006 0-.004 0-.006 0-.004 0-.006 0c-.001 0-.003 0-.005 0s-.004 0-.006 0-.004 0-.006 0-.004 0-.005 0c-.002 0-.004 0-.006 0s-.004 0-.006 0-.004 0-.006 0-.003 0-.005 0-.004 0-.006 0-.004 0-.006 0-.004 0-.006 0-.003 0-.005 0-.004 0-.006 0-.004 0-.006 0-.004 0-.006 0-.003 0-.005 0-.004 0-.006 0-.004 0-.006 0-.004 0-.006 0-.003 0-.005 0-.004 0-.006 0-.004 0-.006 0-.004 0-.006 0-.003 0-.005 0-.004 0-.006 0-.004 0-.006 0-.004 0-.006 0-.004 0-.005 0c-.002 0-.004 0-.006 0s-.004 0-.006 0-.004 0-.006 0-.004 0-.006 0c-.001 0-.003 0-.005 0s-.004 0-.006 0-.004 0-.006 0-.004 0-.006 0-.003 0-.005 0-.004 0-.006 0-.004 0-.006 0-.004 0-.006 0-.004 0-.006 0c-.001 0-.003 0-.005 0s-.004 0-.006 0-.004 0-.006 0-.004 0-.006 0-.004 0-.005 0c-.002 0-.004 0-.006 0s-.004 0-.006 0-.004 0-.006 0-.004 0-.006 0-.004 0-.005 0c-.002 0-.004 0-.006 0s-.004 0-.006 0-.004 0-.006 0-.004 0-.006 0-.004 0-.005 0c-.002 0-.004 0-.006 0s-.004 0-.006 0-.004 0-.006 0-.004 0-.006 0-.004 0-.006 0c-.001 0-.003 0-.005 0s-.004 0-.006 0-.004 0-.006 0-.004 0-.006 0-.004 0-.006 0-.003 0-.005 0-.004 0-.006 0-.004 0-.006 0-.004 0-.006 0-.004 0-.006 0-.004 0-.006 0-.003 0-.005 0-.004 0-.006 0-.004 0-.006 0-.004 0-.006 0-.004 0-.006 0-.004 0-.006 0-.003 0-.005 0-.004 0-.006 0-.004 0-.006 0-.004 0-.006 0-.004 0-.006 0-.004 0-.006 0-.004 0-.005 0c-.002 0-.004 0-.006 0s-.004 0-.006 0-.004 0-.006 0-.004 0-.006 0-.004 0-.006 0-.004 0-.006 0-.004 0-.005 0c-.002 0-.004 0-.006 0s-.004 0-.006 0-.004 0-.006 0-.004 0-.006 0-.004 0-.006 0-.004 0-.006 0-.004 0-.006 0c-.001 0-.003 0-.005 0s-.004 0-.006 0-.004 0-.006 0-.004 0-.006 0-.004 0-.006 0-.004 0-.006 0-.004 0-.006 0-.004 0-.006 0c-.001 0-.003 0-.005 0s-.004 0-.006 0-.004 0-.006 0-.004 0-.006 0-.004 0-.006 0-.004 0-.006 0-.004 0-.006 0-.004 0-.006 0-.004 0-.005 0c-.002 0-.004 0-.006 0s-.004 0-.006 0-.004 0-.006 0-.004 0-.006 0-.004 0-.006 0-.004 0-.006 0-.004 0-.006 0-.004 0-.006 0-.004 0-.006 0-.004 0-.006 0c-.001 0-.003 0-.005 0s-.004 0-.006 0-.004 0-.006 0-.004 0-.006 0-.004 0-.006 0-.004 0-.006 0-.004 0-.006 0-.004 0-.006 0-.004 0-.006 0-.004 0-.006 0-.004 0-.006 0-.004 0-.006 0c-.001 0-.003 0-.005 0s-.004 0-.006 0-.004 0-.006 0-.004 0-.006 0-.004 0-.006 0-.004 0-.006 0-.004 0-.006 0-.004 0-.006 0zm2.85 0c7.189 0 14.122 1.115 20.806 3.343l.948-2.846c-6.995-2.332-14.249-3.497-21.754-3.497zm20.806 3.343c6.672 2.224 12.655 5.494 17.957 9.81l1.894-2.326c-5.591-4.551-11.895-7.9943-18.903-10.33zm17.957 9.81c5.28 4.298 9.453 9.513 12.525 15.658l2.684-1.342c-3.261-6.522-7.702-12.074-13.315-16.642zm12.531 15.669c3.044 5.966 4.586 12.82 4.586 20.598h3c0-8.182-1.625-15.515-4.914-21.962zm4.586 20.598c0 19.722-7.157 33.682-21.315 42.226l1.55 2.568c15.228-9.189 22.765-24.236 22.765-44.794zm-21.848 44.244 32.11 57.19 2.616-1.468-32.11-57.19zm33.294 54.961-36.67 3.04.248 2.99 36.67-3.04zm-35.875 3.193-19-9.5-1.342 2.684 19 9.5zm-17.05-67.833c8.082-4.432 14.074-10.336 17.901-17.725l-2.664-1.38c-3.52 6.798-9.054 12.293-16.679 16.475zm17.901-17.725c3.808-7.354 5.678-16.153 5.678-26.34h-3c0 9.826-1.803 18.127-5.342 24.96zm5.678-26.34c0-12.073-3.383-21.96-10.272-29.511l-2.216 2.022c6.285 6.889 9.488 16.002 9.488 27.489zm-10.254-29.491c-6.802-7.7358-16.371-11.529-28.486-11.529v3c11.445 0 20.116 3.5535 26.234 10.51zm-28.486-11.529c-.001 0-.003 0-.004 0-.002 0-.003 0-.005 0-.001 0-.003 0-.004 0-.002 0-.003 0-.005 0-.001 0-.003 0-.004 0-.002 0-.003 0-.005 0-.001 0-.003 0-.004 0-.002 0-.003 0-.005 0-.001 0-.003 0-.004 0-.002 0-.003 0-.004 0-.002 0-.003 0-.005 0-.001 0-.003 0-.004 0-.002 0-.003 0-.005 0-.001 0-.003 0-.004 0-.002 0-.003 0-.005 0-.001 0-.003 0-.004 0-.002 0-.003 0-.005 0-.001 0-.003 0-.004 0-.002 0-.003 0-.005 0-.001 0-.003 0-.004 0-.002 0-.003 0-.004 0-.002 0-.003 0-.005 0-.001 0-.003 0-.004 0-.002 0-.003 0-.005 0-.001 0-.003 0-.004 0-.002 0-.003 0-.005 0-.001 0-.003 0-.004 0-.002 0-.003 0-.005 0-.001 0-.003 0-.004 0-.002 0-.003 0-.005 0-.001 0-.003 0-.004 0s-.003 0-.004 0c-.002 0-.003 0-.005 0-.001 0-.003 0-.004 0-.002 0-.003 0-.005 0-.001 0-.003 0-.004 0-.002 0-.003 0-.005 0-.001 0-.003 0-.004 0-.002 0-.003 0-.005 0-.001 0-.003 0-.004 0-.002 0-.003 0-.005 0-.001 0-.003 0-.004 0s-.003 0-.004 0c-.002 0-.003 0-.005 0-.001 0-.003 0-.004 0-.002 0-.003 0-.005 0-.001 0-.003 0-.004 0-.002 0-.003 0-.005 0-.001 0-.003 0-.004 0-.002 0-.003 0-.005 0-.001 0-.003 0-.004 0-.002 0-.003 0-.005 0-.001 0-.002 0-.004 0-.001 0-.003 0-.004 0-.002 0-.003 0-.005 0-.001 0-.003 0-.004 0-.002 0-.003 0-.005 0-.001 0-.003 0-.004 0-.002 0-.003 0-.005 0-.001 0-.003 0-.004 0-.002 0-.003 0-.005 0-.001 0-.003 0-.004 0-.002 0-.003 0-.005 0-.001 0-.002 0-.004 0-.001 0-.003 0-.004 0-.002 0-.003 0-.005 0-.001 0-.003 0-.004 0-.002 0-.003 0-.005 0-.001 0-.003 0-.004 0-.002 0-.003 0-.005 0-.001 0-.003 0-.004 0-.002 0-.003 0-.005 0-.001 0-.003 0-.004 0-.002 0-.003 0-.004 0-.002 0-.003 0-.005 0-.001 0-.003 0-.004 0-.002 0-.003 0-.005 0-.001 0-.003 0-.004 0-.002 0-.003 0-.005 0-.001 0-.003 0-.004 0-.002 0-.003 0-.005 0-.001 0-.003 0-.004 0-.002 0-.003 0-.005 0-.001 0-.003 0-.004 0-.002 0-.003 0-.004 0-.002 0-.003 0-.005 0-.001 0-.003 0-.004 0-.002 0-.003 0-.005 0-.001 0-.003 0-.004 0-.002 0-.003 0-.005 0-.001 0-.003 0-.004 0-.002 0-.003 0-.005 0-.001 0-.003 0-.004 0-.002 0-.003 0-.005 0-.001 0-.003 0-.004 0s-.003 0-.004 0c-.002 0-.003 0-.005 0-.001 0-.003 0-.004 0-.002 0-.003 0-.005 0-.001 0-.003 0-.004 0-.002 0-.003 0-.005 0-.001 0-.003 0-.004 0-.002 0-.003 0-.005 0-.001 0-.003 0-.004 0-.002 0-.003 0-.005 0-.001 0-.003 0-.004 0s-.003 0-.004 0c-.002 0-.003 0-.005 0-.001 0-.003 0-.004 0-.002 0-.003 0-.005 0-.001 0-.003 0-.004 0-.002 0-.003 0-.005 0-.001 0-.003 0-.004 0-.002 0-.003 0-.005 0-.001 0-.003 0-.004 0-.002 0-.003 0-.005 0-.001 0-.002 0-.004 0-.001 0-.003 0-.004 0-.002 0-.003 0-.005 0-.001 0-.003 0-.004 0-.002 0-.003 0-.005 0-.001 0-.003 0-.004 0-.002 0-.003 0-.005 0-.001 0-.003 0-.004 0-.002 0-.003 0-.005 0-.001 0-.003 0-.004 0-.002 0-.003 0-.005 0-.001 0-.002 0-.004 0-.001 0-.003 0-.004 0-.002 0-.003 0-.005 0-.001 0-.003 0-.004 0-.002 0-.003 0-.005 0-.001 0-.003 0-.004 0-.002 0-.003 0-.005 0-.001 0-.003 0-.004 0-.002 0-.003 0-.005 0-.001 0-.003 0-.004 0-.002 0-.003 0-.004 0-.002 0-.003 0-.005 0-.001 0-.003 0-.004 0-.002 0-.003 0-.005 0-.001 0-.003 0-.004 0-.002 0-.003 0-.005 0-.001 0-.003 0-.004 0-.002 0-.003 0-.005 0-.001 0-.003 0-.004 0-.002 0-.003 0-.005 0-.001 0-.003 0-.004 0-.002 0-.003 0-.004 0-.002 0-.003 0-.005 0-.001 0-.003 0-.004 0-.002 0-.003 0-.005 0-.001 0-.003 0-.004 0-.002 0-.003 0-.005 0-.001 0-.003 0-.004 0-.002 0-.003 0-.005 0-.001 0-.003 0-.004 0-.002 0-.003 0-.005 0-.001 0-.003 0-.004 0s-.003 0-.004 0c-.002 0-.003 0-.005 0-.001 0-.003 0-.004 0-.002 0-.003 0-.005 0-.001 0-.003 0-.004 0-.002 0-.003 0-.005 0-.001 0-.003 0-.004 0-.002 0-.003 0-.005 0-.001 0-.003 0-.004 0-.002 0-.003 0-.005 0-.001 0-.003 0-.004 0s-.003 0-.004 0c-.002 0-.003 0-.005 0-.001 0-.003 0-.004 0-.002 0-.003 0-.005 0-.001 0-.003 0-.004 0-.002 0-.003 0-.005 0-.001 0-.003 0-.004 0-.002 0-.003 0-.005 0-.001 0-.003 0-.004 0-.002 0-.003 0-.005 0-.001 0-.002 0-.004 0-.001 0-.003 0-.004 0-.002 0-.003 0-.005 0-.001 0-.003 0-.004 0-.002 0-.003 0-.005 0-.001 0-.003 0-.004 0-.002 0-.003 0-.005 0-.001 0-.003 0-.004 0-.002 0-.003 0-.005 0-.001 0-.003 0-.004 0-.002 0-.003 0-.005 0-.001 0-.002 0-.004 0-.001 0-.003 0-.004 0-.002 0-.003 0-.005 0-.001 0-.003 0-.004 0-.002 0-.003 0-.005 0-.001 0-.003 0-.004 0-.002 0-.003 0-.005 0-.001 0-.003 0-.004 0-.002 0-.003 0-.005 0-.001 0-.003 0-.004 0-.002 0-.003 0-.004 0-.002 0-.003 0-.005 0-.001 0-.003 0-.004 0-.002 0-.003 0-.005 0-.001 0-.003 0-.004 0-.002 0-.003 0-.005 0-.001 0-.003 0-.004 0-.002 0-.003 0-.005 0-.001 0-.003 0-.004 0-.002 0-.003 0-.005 0-.001 0-.003 0-.004 0-.002 0-.003 0-.004 0-.002 0-.003 0-.005 0-.001 0-.003 0-.004 0-.002 0-.003 0-.005 0-.001 0-.003 0-.004 0-.002 0-.003 0-.005 0-.001 0-.003 0-.004 0-.002 0-.003 0-.005 0-.001 0-.003 0-.004 0-.002 0-.003 0-.005 0-.001 0-.003 0-.004 0s-.003 0-.004 0c-.002 0-.003 0-.005 0-.001 0-.003 0-.004 0-.002 0-.003 0-.005 0-.001 0-.003 0-.004 0-.002 0-.003 0-.005 0-.001 0-.003 0-.004 0-.002 0-.003 0-.005 0-.001 0-.003 0-.004 0-.002 0-.003 0-.005 0-.001 0-.003 0-.004 0s-.003 0-.004 0c-.002 0-.003 0-.005 0-.001 0-.003 0-.004 0-.002 0-.003 0-.005 0-.001 0-.003 0-.004 0-.002 0-.003 0-.005 0-.001 0-.003 0-.004 0-.002 0-.003 0-.005 0-.001 0-.003 0-.004 0-.002 0-.003 0-.005 0-.001 0-.002 0-.004 0-.001 0-.003 0-.004 0-.002 0-.003 0-.005 0-.001 0-.003 0-.004 0-.002 0-.003 0-.005 0-.001 0-.003 0-.004 0-.002 0-.003 0-.005 0-.001 0-.003 0-.004 0-.002 0-.003 0-.005 0-.001 0-.003 0-.004 0-.002 0-.003 0-.005 0-.001 0-.002 0-.004 0-.001 0-.003 0-.004 0-.002 0-.003 0-.005 0-.001 0-.003 0-.004 0-.002 0-.003 0-.005 0-.001 0-.003 0-.004 0-.002 0-.003 0-.005 0-.001 0-.003 0-.004 0-.002 0-.003 0-.005 0-.001 0-.003 0-.004 0-.002 0-.003 0-.004 0-.002 0-.003 0-.005 0-.001 0-.003 0-.004 0-.002 0-.003 0-.005 0-.001 0-.003 0-.004 0-.002 0-.003 0-.005 0-.001 0-.003 0-.004 0-.002 0-.003 0-.005 0-.001 0-.003 0-.004 0-.002 0-.003 0-.005 0-.001 0-.003 0-.004 0-.002 0-.003 0-.004 0-.002 0-.003 0-.005 0-.001 0-.003 0-.004 0-.002 0-.003 0-.005 0-.001 0-.003 0-.004 0-.002 0-.003 0-.005 0-.001 0-.003 0-.004 0-.002 0-.003 0-.005 0-.001 0-.003 0-.004 0-.002 0-.003 0-.005 0-.001 0-.003 0-.004 0s-.003 0-.004 0c-.002 0-.003 0-.005 0-.001 0-.003 0-.004 0-.002 0-.003 0-.005 0-.001 0-.003 0-.004 0-.002 0-.003 0-.005 0-.001 0-.003 0-.004 0-.002 0-.003 0-.005 0-.001 0-.003 0-.004 0-.002 0-.003 0-.005 0-.001 0-.003 0-.004 0s-.003 0-.004 0c-.002 0-.003 0-.005 0-.001 0-.003 0-.004 0-.002 0-.003 0-.005 0-.001 0-.003 0-.004 0-.002 0-.003 0-.005 0-.001 0-.003 0-.004 0-.002 0-.003 0-.005 0-.001 0-.003 0-.004 0-.002 0-.003 0-.005 0-.001 0-.002 0-.004 0-.001 0-.003 0-.004 0-.002 0-.003 0-.005 0-.001 0-.003 0-.004 0-.002 0-.003 0-.005 0-.001 0-.003 0-.004 0-.002 0-.003 0-.005 0-.001 0-.003 0-.004 0-.002 0-.003 0-.005 0-.001 0-.003 0-.004 0-.002 0-.003 0-.005 0-.001 0-.002 0-.004 0-.001 0-.003 0-.004 0-.002 0-.003 0-.005 0-.001 0-.003 0-.004 0-.002 0-.003 0-.005 0-.001 0-.003 0-.004 0-.002 0-.003 0-.005 0-.001 0-.003 0-.004 0-.002 0-.003 0-.005 0-.001 0-.003 0-.004 0-.002 0-.003 0-.004 0-.002 0-.003 0-.005 0-.001 0-.003 0-.004 0-.002 0-.003 0-.005 0-.001 0-.003 0-.004 0-.002 0-.003 0-.005 0-.001 0-.003 0-.004 0-.002 0-.003 0-.005 0-.001 0-.003 0-.004 0-.002 0-.003 0-.005 0-.001 0-.003 0-.004 0-.002 0-.003 0-.004 0-.002 0-.003 0-.005 0-.001 0-.003 0-.004 0-.002 0-.003 0-.005 0-.001 0-.003 0-.004 0-.002 0-.003 0-.005 0-.001 0-.003 0-.004 0-.002 0-.003 0-.005 0-.001 0-.003 0-.004 0-.002 0-.003 0-.005 0-.001 0-.003 0-.004 0s-.003 0-.004 0c-.002 0-.003 0-.005 0-.001 0-.003 0-.004 0-.002 0-.003 0-.005 0-.001 0-.003 0-.004 0-.002 0-.003 0-.005 0-.001 0-.003 0-.004 0-.002 0-.003 0-.005 0-.001 0-.003 0-.004 0-.002 0-.003 0-.005 0-.001 0-.003 0-.004 0s-.003 0-.004 0c-.002 0-.003 0-.005 0-.001 0-.003 0-.004 0-.002 0-.003 0-.005 0-.001 0-.003 0-.004 0-.002 0-.003 0-.005 0-.001 0-.003 0-.004 0-.002 0-.003 0-.005 0-.001 0-.003 0-.004 0-.002 0-.003 0-.005 0-.001 0-.002 0-.004 0-.001 0-.003 0-.004 0-.002 0-.003 0-.005 0-.001 0-.003 0-.004 0-.002 0-.003 0-.005 0-.001 0-.003 0-.004 0-.002 0-.003 0-.005 0-.001 0-.003 0-.004 0-.002 0-.003 0-.005 0-.001 0-.003 0-.004 0-.002 0-.003 0-.005 0-.001 0-.002 0-.004 0-.001 0-.003 0-.004 0-.002 0-.003 0-.005 0-.001 0-.003 0-.004 0-.002 0-.003 0-.005 0-.001 0-.003 0-.004 0-.002 0-.003 0-.005 0-.001 0-.003 0-.004 0-.002 0-.003 0-.005 0-.001 0-.003 0-.004 0-.002 0-.003 0-.004 0-.002 0-.003 0-.005 0-.001 0-.003 0-.004 0-.002 0-.003 0-.005 0-.001 0-.003 0-.004 0-.002 0-.003 0-.005 0-.001 0-.003 0-.004 0-.002 0-.003 0-.005 0-.001 0-.003 0-.004 0-.002 0-.003 0-.005 0-.001 0-.003 0-.004 0-.002 0-.003 0-.004 0-.002 0-.003 0-.005 0-.001 0-.003 0-.004 0-.002 0-.003 0-.005 0-.001 0-.003 0-.004 0-.002 0-.003 0-.005 0-.001 0-.003 0-.004 0-.002 0-.003 0-.005 0-.001 0-.003 0-.004 0-.002 0-.003 0-.005 0-.001 0-.003 0-.004 0s-.003 0-.004 0c-.002 0-.003 0-.005 0-.001 0-.003 0-.004 0-.002 0-.003 0-.005 0-.001 0-.003 0-.004 0-.002 0-.003 0-.005 0-.001 0-.003 0-.004 0-.002 0-.003 0-.005 0-.001 0-.003 0-.004 0-.002 0-.003 0-.005 0-.001 0-.003 0-.004 0s-.003 0-.004 0c-.002 0-.003 0-.005 0-.001 0-.003 0-.004 0-.002 0-.003 0-.005 0-.001 0-.003 0-.004 0-.002 0-.003 0-.005 0-.001 0-.003 0-.004 0-.002 0-.003 0-.005 0-.001 0-.003 0-.004 0-.002 0-.003 0-.005 0-.001 0-.002 0-.004 0-.001 0-.003 0-.004 0-.002 0-.003 0-.005 0-.001 0-.003 0-.004 0-.002 0-.003 0-.005 0-.001 0-.003 0-.004 0-.002 0-.003 0-.005 0-.001 0-.003 0-.004 0-.002 0-.003 0-.005 0-.001 0-.003 0-.004 0-.002 0-.003 0-.005 0-.001 0-.002 0-.004 0-.001 0-.003 0-.004 0-.002 0-.003 0-.005 0-.001 0-.003 0-.004 0-.002 0-.003 0-.005 0-.001 0-.003 0-.004 0-.002 0-.003 0-.005 0-.001 0-.003 0-.004 0-.002 0-.003 0-.005 0-.001 0-.003 0-.004 0-.002 0-.003 0-.004 0-.002 0-.003 0-.005 0-.001 0-.003 0-.004 0-.002 0-.003 0-.005 0-.001 0-.003 0-.004 0-.002 0-.003 0-.005 0-.001 0-.003 0-.004 0-.002 0-.003 0-.005 0-.001 0-.003 0-.004 0-.002 0-.003 0-.005 0-.001 0-.003 0-.004 0-.002 0-.003 0-.004 0-.002 0-.003 0-.005 0-.001 0-.003 0-.004 0-.002 0-.003 0-.005 0-.001 0-.003 0-.004 0-.002 0-.003 0-.005 0-.001 0-.003 0-.004 0-.002 0-.003 0-.005 0-.001 0-.003 0-.004 0-.002 0-.003 0-.005 0-.001 0-.003 0-.004 0s-.003 0-.004 0c-.002 0-.003 0-.005 0-.001 0-.003 0-.004 0-.002 0-.003 0-.005 0-.001 0-.003 0-.004 0-.002 0-.003 0-.005 0-.001 0-.003 0-.004 0-.002 0-.003 0-.005 0-.001 0-.003 0-.004 0-.002 0-.003 0-.005 0-.001 0-.003 0-.004 0s-.003 0-.004 0c-.002 0-.003 0-.005 0-.001 0-.003 0-.004 0-.002 0-.003 0-.005 0-.001 0-.003 0-.004 0-.002 0-.003 0-.005 0-.001 0-.003 0-.004 0-.002 0-.003 0-.005 0-.001 0-.003 0-.004 0-.002 0-.003 0-.005 0-.001 0-.002 0-.004 0-.001 0-.003 0-.004 0-.002 0-.003 0-.005 0-.001 0-.003 0-.004 0-.002 0-.003 0-.005 0-.001 0-.003 0-.004 0-.002 0-.003 0-.005 0-.001 0-.003 0-.004 0-.002 0-.003 0-.005 0-.001 0-.003 0-.004 0-.002 0-.003 0-.005 0-.001 0-.002 0-.004 0v3h.004.005.004.005.004.005.004.005.004.005.004.004.005.004.005.004.005.004.005.004.005.004.004.005.004.005.004.005.004.005.004.005.004.004.005.004.005.004.005.004.005.004.005.004.004.005.004.005.004.005.004.005.004.005.004.004.005.004.005.004.005.004.005.004.004.005.004.005.004.005.004.005.004.005.004.004.005.004.005.004.005.004.005.004.005.004.004.005.004.005.004.005.004.005.004.005.004.004.005.004.005.004.005.004.005.004.005.004.004.005.004.005.004.005.004.005.004.005.004.004.005.004.005.004.005.004.005.004.004.005.004.005.004.005.004.005.004.005.004.004.005.004.005.004.005.004.005.004.005.004.004.005.004.005.004.005.004.005.004.005.004.004.005.004.005.004.005.004.005.004.005.004.004.005.004.005.004.005.004.005.004.005.004.004.005.004.005.004.005.004.005.004.004.005.004.005.004.005.004.005.004.005.004.004.005.004.005.004.005.004.005.004.005.004.004.005.004.005.004.005.004.005.004.005.004.004.005.004.005.004.005.004.005.004.005.004.004.005.004.005.004.005.004.005.004.005.004.004.005.004.005.004.005.004.005.004.004.005.004.005.004.005.004.005.004.005.004.004.005.004.005.004.005.004.005.004.005.004.004.005.004.005.004.005.004.005.004.005.004.004.005.004.005.004.005.004.005.004.005.004.004.005.004.005.004.005.004.005.004.005.004.004.005.004.005.004.005.004.005.004.004.005.004.005.004.005.004.005.004.005.004.004.005.004.005.004.005.004.005.004.005.004.004.005.004.005.004.005.004.005.004.005.004.004.005.004.005.004.005.004.005.004.005.004.004.005.004.005.004.005.004.005.004.005.004.004.005.004.005.004.005.004.005.004.004.005.004.005.004.005.004.005.004.005.004.004.005.004.005.004.005.004.005.004.005.004.004.005.004.005.004.005.004.005.004.005.004.004.005.004.005.004.005.004.005.004.005.004.004.005.004.005.004.005.004.005.004.005.004.004.005.004.005.004.005.004.005.004.004.005.004.005.004.005.004.005.004.005.004.004.005.004.005.004.005.004.005.004.005.004.004.005.004.005.004.005.004.005.004.005.004.004.005.004.005.004.005.004.005.004.005.004.004.005.004.005.004.005.004.005.004.005.004.004.005.004.005.004.005.004.005.004zm-2.28 0c-.842 0-1.737.0701-2.682.2051l.424 2.9698c.829-.1183 1.58-.1749 2.258-.1749zm-2.6.1956-45.98 3.99.26 2.9884 45.98-3.9896zm-47.35 5.4844v140.79h3v-140.79zm1.628 142.285 28.88-2.47-.256-2.99-28.88 2.47zm30.252-3.965v-50.16h-3v50.16zm-1.361-48.666 8.17-.76-.278-2.988-8.17.76zm6.714-1.535 27.17 49.78 2.634-1.438-27.17-49.78zm28.618 50.555 32.49-2.85-.262-2.988-32.49 2.85zm33.667-5.078-31.54-56.24-2.616 1.468 31.54 56.24zm-69.002-107.212 12.54-1.14-.272-2.988-12.54 1.14zm12.404-1.134h2.09v-3h-2.09zm2.09 0c3.851 0 6.962 1.156 9.441 3.41l2.018-2.22c-3.094-2.813-6.95-4.19-11.459-4.19zm9.495 3.456c2.404 1.986 3.825 5.672 3.825 11.574h3c0-6.258-1.492-11.059-4.915-13.886zm3.825 11.574c0 6.103-1.463 10.653-4.199 13.844l2.278 1.952c3.345-3.902 4.921-9.233 4.921-15.796zm-4.181 13.823c-2.754 3.098-6.501 4.919-11.375 5.394l.292 2.986c5.512-.538 9.999-2.644 13.325-6.386zm-11.365 5.393-12.54 1.14.272 2.988 12.54-1.14zm-10.904 2.634v-37.24h-3v37.24zm20.272-4.669c4.963-3.546 7.278-9.418 7.278-17.181h-3c0 7.184-2.118 11.951-6.022 14.739zm7.278-17.181c0-.957-.068-1.864-.21-2.717l-2.96.494c.112.667.17 1.407.17 2.223zm-.19-2.47c0-.844-.07-1.686-.21-2.527l-2.96.494c.114.679.17 1.357.17 2.033zm-1.826-3.774-6.27.57.272 2.988 6.27-.57zm-7.634 2.064v20.14h3v-20.14zm-119.102 300.36-1.286.772.225.374.39.196zm-15.39-25.65 1.287-.772-2.787-4.643v5.415zm0 36.1.131 1.494 1.369-.12v-1.374zm-32.49 2.85-.671 1.342.38.189.422-.037zm-19-9.5h-1.5v.927l.829.415zm0-144.4-.131-1.494-1.369.12v1.374zm32.49-2.85.671-1.342-.379-.189-.423.037zm19 9.5h1.5v-.927l-.829-.415zm0 10.26h-1.5v5.305l2.778-4.52zm12.73-20.71-.131-1.494-.752.066-.395.643zm36.67-3.23.671-1.342-.38-.189-.422.037zm19 9.5 1.265.806.895-1.403-1.489-.745zm-43.13 67.64-1.264-.806-.504.789.489.799zm46.93 76.76.128 1.495 2.418-.207-1.266-2.07zm-37.81 3.23-.671 1.342.378.189.421-.036zm11.4-154.85 1.265.806 1.64-2.571-3.038.271zm-31.92 2.85-.133-1.494-.752.067-.394.644zm-34.77 56.81h-1.5v5.324l2.78-4.541zm0-55.67h1.5v-1.635l-1.628.141zm-28.69 2.47-.128-1.494-1.372.118v1.376zm0 140.6h-1.5v1.624l1.619-.129zm28.69-2.28.119 1.495 1.381-.109v-1.386zm0-40.47-1.261-.812-.239.371v.441zm7.22-11.21 1.289-.768-1.24-2.079-1.31 2.035zm30.02 50.35-1.288.768.484.811.94-.085zm33.44-3.04.136 1.494 2.403-.219-1.259-2.058zm-45.79-74.86-1.264-.807-.504.79.489.8zm12.687 79.028-15.39-25.65-2.573 1.544 15.39 25.65zm-18.177-24.878v36.1h3v-36.1zm1.369 34.606-32.49 2.85.262 2.988 32.49-2.85zm-31.688 3.002-19-9.5-1.342 2.684 19 9.5zm-18.171-8.158v-144.4h-3v144.4zm-1.369-142.906 32.49-2.85-.262-2.988-32.49 2.85zm31.688-3.002 19 9.5 1.342-2.684-19-9.5zm18.171 8.158v10.26h3v-10.26zm2.778 11.045 12.73-20.71-2.556-1.57-12.73 20.71zm11.584-20.001 36.67-3.23-.263-2.988-36.67 3.23zm35.867-3.382 19 9.5 1.342-2.684-19-9.5zm18.407 7.352-43.13 67.64 2.529 1.612 43.13-67.64zm-43.145 69.228 46.93 76.76 2.559-1.564-46.93-76.76zm48.082 74.483-37.81 3.23.255 2.99 37.81-3.23zm-37.012 3.383-19-9.5-1.342 2.684 19 9.5zm10.596-155.002-31.92 2.85.267 2.988 31.92-2.85zm-33.066 3.561-34.77 56.81 2.559 1.566 34.77-56.81zm-31.991 57.593v-55.67h-3v55.67zm-1.628-57.164-28.69 2.47.257 2.988 28.69-2.47zm-30.062 3.964v140.6h3v-140.6zm1.619 142.095 28.69-2.28-.238-2.99-28.69 2.28zm30.071-3.775v-40.47h-3v40.47zm-.239-39.658 7.22-11.21-2.522-1.624-7.22 11.21zm4.671-11.254 30.02 50.35 2.577-1.536-30.02-50.35zm31.444 51.076 33.44-3.04-.272-2.988-33.44 3.04zm34.584-5.317-45.79-74.86-2.559 1.566 45.79 74.86zm-45.805-73.271 41.8-65.55-2.529-1.613-41.8 65.55zm113.617 79.944h-1.5v.935l.84.412zm0-101.46h1.5v-1.624l-1.619.129zm-11.97.95-.671 1.342.374.186.416-.033zm-19-9.5h-1.5v.927l.829.415zm0-31.92-.132-1.494-1.368.121v1.373zm94.62-8.36.671-1.342-.38-.19-.423.038zm19 9.5h1.5v-.927l-.829-.415zm0 31.92.128 1.494 1.372-.117v-1.377zm-30.97 2.66-.128-1.495-1.372.118v1.377zm0 112.48.139 1.494 1.361-.127v-1.367zm-32.68 3.04-.66 1.347.379.186.42-.039zm42.75-129.39.128 1.494 1.372-.117v-1.377zm0-28.12h1.5v-1.638l-1.631.144zm-90.82 7.98-.131-1.494-1.369.12v1.374zm0 28.12h-1.5v1.634l1.628-.14zm30.97-2.66h1.5v-1.634l-1.628.139zm0 112.67h-1.5v1.634l1.628-.139zm28.88-2.47.128 1.495 1.372-.118v-1.377zm0-112.86-.128-1.495-1.372.118v1.377zm-29.28 117.42v-101.46h-3v101.46zm-1.619-102.955-11.97.95.238 2.99 11.97-.95zm-11.18 1.103-19-9.5-1.342 2.684 19 9.5zm-18.171-8.158v-31.92h-3v31.92zm-1.368-30.426 94.62-8.36-.264-2.988-94.62 8.36zm93.817-8.512 19 9.5 1.342-2.684-19-9.5zm18.171 8.158v31.92h3v-31.92zm1.372 30.425-30.97 2.66.256 2.989 30.97-2.66zm-32.342 4.155v112.48h3v-112.48zm1.361 110.986-32.68 3.04.278 2.988 32.68-3.04zm-31.881 3.187-19-9.31-1.32 2.694 19 9.31zm43.59-128.043v-28.12h-3v28.12zm-1.631-29.614-90.82 7.98.262 2.988 90.82-7.98zm-92.189 9.474v28.12h3v-28.12zm1.628 29.614 30.97-2.66-.256-2.989-30.97 2.66zm29.342-4.154v112.67h3v-112.67zm1.628 114.165 28.88-2.47-.256-2.99-28.88 2.47zm30.252-3.965v-112.86h-3v112.86zm-1.372-111.366 30.97-2.66-.256-2.989-30.97 2.66z"/></g></svg>