<svg fill="none" height="512" viewBox="0 0 512 512" width="512" xmlns="http://www.w3.org/2000/svg"><path d="m0 0h512v512h-512z" fill="#f2f3f2"/><g fill="#222"><path d="m161.561 413.12v-296.4l164.58-14.43 39 19.5v63.57l-97.11 8.19v24.18l44.07-3.9 39 19.5v63.57l-83.07 7.02v122.46l-67.47 6.24zm146.64-139.23v-55.77l-83.07 7.02v-54.6l97.11-8.19v-55.77l-156.78 13.65v288.99l59.67-5.46v-122.85z"/><path d="m161.561 413.12h-1.5v.927l.829.415zm0-296.4-.131-1.494-1.369.12v1.374zm164.58-14.43.67-1.342-.379-.189-.422.037zm39 19.5h1.5v-.927l-.83-.415zm0 63.57.126 1.495 1.374-.116v-1.379zm-97.11 8.19-.126-1.495-1.374.116v1.379zm0 24.18h-1.5v1.639l1.632-.145zm44.07-3.9.67-1.342-.38-.19-.423.038zm39 19.5h1.5v-.927l-.83-.415zm0 63.57.126 1.495 1.374-.116v-1.379zm-83.07 7.02-.127-1.495-1.373.116v1.379zm0 122.46.138 1.494 1.362-.126v-1.368zm-67.47 6.24-.671 1.342.383.191.426-.039zm107.64-158.73.126 1.495 1.374-.116v-1.379zm0-55.77h1.5v-1.632l-1.627.137zm-83.07 7.02h-1.5v1.632l1.626-.137zm0-54.6-.126-1.495-1.374.116v1.379zm97.11-8.19.126 1.495 1.374-.116v-1.379zm0-55.77h1.5v-1.636l-1.631.142zm-156.78 13.65-.131-1.494-1.369.119v1.375zm0 288.99h-1.5v1.644l1.636-.15zm59.67-5.46.136 1.494 1.364-.125v-1.369zm0-122.85-.127-1.495-1.373.116v1.379zm-62.07 132.21v-296.4h-3v296.4zm-1.369-294.906 164.58-14.43-.262-2.988-164.58 14.43zm163.778-14.582 39 19.5 1.341-2.684-39-19.5zm38.171 18.158v63.57h3v-63.57zm1.374 62.075-97.11 8.19.252 2.99 97.11-8.19zm-98.484 9.685v24.18h3v-24.18zm1.632 25.674 44.07-3.9-.265-2.988-44.07 3.9zm43.267-4.052 39 19.5 1.341-2.684-39-19.5zm38.171 18.158v63.57h3v-63.57zm1.373 62.075-83.07 7.02.253 2.99 83.07-7.02zm-84.443 8.515v122.46h3v-122.46zm1.361 120.966-67.47 6.24.277 2.988 67.47-6.24zm-66.661 6.392-39-19.5-1.341 2.684 39 19.5zm108.47-157.388v-55.77h-3v55.77zm-1.627-57.265-83.07 7.02.253 2.99 83.07-7.02zm-81.443 8.515v-54.6h-3v54.6zm-1.374-53.105 97.11-8.19-.252-2.99-97.11 8.19zm98.484-9.685v-55.77h-3v55.77zm-1.631-57.264-156.78 13.65.261 2.988 156.78-13.65zm-158.149 15.144v288.99h3v-288.99zm1.636 290.484 59.67-5.46-.273-2.988-59.67 5.46zm61.034-6.954v-122.85h-3v122.85zm-1.374-121.355 83.07-7.02-.253-2.99-83.07 7.02z"/></g></svg>